<svg id="Layer_1" data-name="Layer 1" xmlns="http://www.w3.org/2000/svg" xmlns:xlink="http://www.w3.org/1999/xlink"
     viewBox="0 0 1366 768">
    <defs>
        <style>
            .cls-1{font-size:39px;}.cls-1,.cls-10,.cls-17,.cls-30,.cls-4,.cls-5,.cls-6,.cls-7,.cls-8,.cls-9{fill:#fff;}.cls-1,.cls-10,.cls-4,.cls-5,.cls-6,.cls-7,.cls-8,.cls-9{font-family:CourierNewPSMT,
            Courier
            New;}.cls-2{fill:#5382a1;}.cls-3{fill:#e76f00;}.cls-4{font-size:38px;}.cls-5{font-size:20px;}.cls-6{font-size:30px;}.cls-7{font-size:25px;}.cls-8{font-size:17px;}.cls-9{font-size:15px;}.cls-10{font-size:19px;}.cls-11{fill:#001d26;}.cls-12{fill:#00c8ff;}.cls-13,.cls-14,.cls-26,.cls-27,.cls-28,.cls-29,.cls-30{fill-rule:evenodd;}.cls-13{fill:url(#radial-gradient);}.cls-14{fill:#ff408c;}.cls-15{fill:#261300;}.cls-16{fill:#ff7c00;}.cls-18{fill:#3e5ba9;}.cls-19{fill:#9f1d20;}.cls-20{fill:#e44d26;}.cls-21{fill:#f16529;}.cls-22,.cls-35,.cls-36{fill:#ebebeb;}.cls-23{fill:#264de4;}.cls-24{fill:#2965f1;}.cls-25{fill:url(#linear-gradient);}.cls-26{fill:url(#linear-gradient-2);}.cls-27{fill:url(#linear-gradient-3);}.cls-28{fill:url(#linear-gradient-4);}.cls-29{fill:url(#linear-gradient-5);}.cls-31{fill:#61dafb;}.cls-32{fill:#666;}.cls-33{fill:#4d4d4d;}.cls-34{fill:#d4b830;}.cls-35{fill-opacity:0;}.cls-35,.cls-36{opacity:0.99;isolation:isolate;}.cls-36{fill-opacity:0.92;}.cls-37{fill:#fdd83c;}
        </style>
        <radialGradient id="radial-gradient" cx="389.47" cy="982.15" r="22.68"
                        gradientTransform="matrix(1, 0, 0, -1, 0, 1538)" gradientUnits="userSpaceOnUse">
            <stop offset="0" stop-color="#250012" stop-opacity="0.85"/>
            <stop offset="0.77" stop-color="#250012"/>
        </radialGradient>
        <linearGradient id="linear-gradient" x1="1016.5" y1="738.83" x2="1018.14" y2="740.49"
                        gradientTransform="matrix(15.62, 0, 0, -15.62, -14802.16, 11753.48)"
                        gradientUnits="userSpaceOnUse">
            <stop offset="0" stop-color="#070135"/>
            <stop offset="1" stop-color="#612d50"/>
        </linearGradient>
        <linearGradient id="linear-gradient-2" x1="688.55" y1="1161.49" x2="689.08" y2="1161.49"
                        gradientTransform="matrix(29.8, 0, 0, -26.5, -19698.5, 30962.9)" gradientUnits="userSpaceOnUse">
            <stop offset="0.26" stop-color="#f97a12"/>
            <stop offset="0.46" stop-color="#b07b58"/>
            <stop offset="0.72" stop-color="#577bae"/>
            <stop offset="0.91" stop-color="#1e7ce5"/>
            <stop offset="1" stop-color="#087cfa"/>
        </linearGradient>
        <linearGradient id="linear-gradient-3" x1="687.08" y1="1156.33" x2="687.72" y2="1156.1"
                        gradientTransform="matrix(40.6, 0, 0, -63, -27063, 73025)" gradientUnits="userSpaceOnUse">
            <stop offset="0" stop-color="#f97a12"/>
            <stop offset="0.07" stop-color="#cb7a3e"/>
            <stop offset="0.15" stop-color="#9e7b6a"/>
            <stop offset="0.24" stop-color="#757b91"/>
            <stop offset="0.33" stop-color="#537bb1"/>
            <stop offset="0.43" stop-color="#387ccc"/>
            <stop offset="0.54" stop-color="#237ce0"/>
            <stop offset="0.66" stop-color="#147cef"/>
            <stop offset="0.79" stop-color="#0b7cf7"/>
            <stop offset="1" stop-color="#087cfa"/>
        </linearGradient>
        <linearGradient id="linear-gradient-4" x1="688.62" y1="1158.14" x2="688.36" y2="1158.7"
                        gradientTransform="matrix(28.4, 0, 0, -39.1, -18706, 45468.3)" gradientUnits="userSpaceOnUse">
            <stop offset="0" stop-color="#fe315d"/>
            <stop offset="0.08" stop-color="#cb417e"/>
            <stop offset="0.16" stop-color="#9e4e9b"/>
            <stop offset="0.25" stop-color="#755bb4"/>
            <stop offset="0.34" stop-color="#5365ca"/>
            <stop offset="0.44" stop-color="#386ddb"/>
            <stop offset="0.54" stop-color="#2374e9"/>
            <stop offset="0.66" stop-color="#1478f3"/>
            <stop offset="0.79" stop-color="#0b7bf8"/>
            <stop offset="1" stop-color="#087cfa"/>
        </linearGradient>
        <linearGradient id="linear-gradient-5" x1="686.88" y1="1156.41" x2="687.32" y2="1155.84"
                        gradientTransform="matrix(49.1, 0, 0, -62.4, -32900.4, 72332.2)" gradientUnits="userSpaceOnUse">
            <stop offset="0" stop-color="#fe315d"/>
            <stop offset="0.04" stop-color="#f63462"/>
            <stop offset="0.1" stop-color="#df3a71"/>
            <stop offset="0.17" stop-color="#c24383"/>
            <stop offset="0.29" stop-color="#ad4a91"/>
            <stop offset="0.55" stop-color="#755bb4"/>
            <stop offset="0.92" stop-color="#1d76ed"/>
            <stop offset="1" stop-color="#087cfa"/>
        </linearGradient>
    </defs>
    <title>Artboard 1</title>
    <rect x="0.5" y="0.5" width="1365" height="767"/>
    <path d="M1365,1V767H1V1H1365m1-1H0V768H1366V0Z"/>
    <text class="cls-1" transform="translate(123.02 145.56) rotate(90)">G
        <tspan x="23.39" y="0">r</tspan>
        <tspan x="46.8" y="0">a</tspan>
        <tspan x="70.2" y="0">p</tspan>
        <tspan x="93.63" y="0">h</tspan>
        <tspan x="117.03" y="0">i</tspan>
        <tspan x="140.45" y="0">c</tspan>
        <tspan x="163.84" y="0"></tspan>
        <tspan x="187.24" y="0">D</tspan>
        <tspan x="210.66" y="0">e</tspan>
        <tspan x="234.07" y="0">s</tspan>
        <tspan x="257.47" y="0">i</tspan>
        <tspan x="280.88" y="0">g</tspan>
        <tspan x="304.29" y="0">n</tspan>
    </text>
    <path class="cls-2"
          d="M834.38,257.84s-1.67,1,1.19,1.3a25,25,0,0,0,9.06-.38,15.31,15.31,0,0,0,2.4,1.17c-8.56,3.67-19.37-.21-12.65-2.09"/>
    <path class="cls-2"
          d="M833.34,253.06s-1.88,1.38,1,1.68a35.46,35.46,0,0,0,11.68-.56,5.21,5.21,0,0,0,1.8,1.1c-10.35,3-21.88.23-14.47-2.22"/>
    <path class="cls-3"
          d="M842.15,244.94c2.11,2.43-.55,4.61-.55,4.61s5.35-2.76,2.9-6.23c-2.3-3.22-4.06-4.83,5.47-10.36,0,0-15,3.74-7.82,12"/>
    <path class="cls-2"
          d="M853.47,261.38s1.24,1-1.36,1.81c-4.94,1.5-20.56,1.95-24.9.06-1.56-.68,1.37-1.62,2.29-1.82a5.86,5.86,0,0,1,1.51-.17c-1.74-1.22-11.22,2.4-4.82,3.44,17.45,2.83,31.81-1.28,27.28-3.32"/>
    <path class="cls-2"
          d="M835.19,248.1s-8,1.88-2.82,2.57a60.35,60.35,0,0,0,10.51-.11c3.29-.28,6.59-.87,6.59-.87a13.92,13.92,0,0,0-2,1.07c-8.07,2.12-23.66,1.13-19.17-1a15,15,0,0,1,6.88-1.62"/>
    <path class="cls-2"
          d="M849.44,256.06c8.2-4.26,4.41-8.35,1.76-7.8a5.27,5.27,0,0,0-.93.25,1.47,1.47,0,0,1,.7-.54c5.23-1.84,9.26,5.43-1.69,8.31a.7.7,0,0,0,.16-.22"/>
    <path class="cls-3"
          d="M844.5,224s4.54,4.55-4.31,11.54c-7.1,5.6-1.62,8.8,0,12.45-4.14-3.74-7.18-7-5.14-10.09,3-4.5,11.29-6.68,9.46-13.9"/>
    <path class="cls-2"
          d="M836,267.61c7.88.51,20-.28,20.25-4,0,0-.55,1.41-6.5,2.53a64.63,64.63,0,0,1-19.93.31s1,.83,6.18,1.16"/>
    <text class="cls-4" transform="translate(181.27 330.32)">C
        <tspan x="22.81" y="0">o</tspan>
        <tspan x="45.6" y="0">m</tspan>
        <tspan x="68.4" y="0">p</tspan>
        <tspan x="91.23" y="0">u</tspan>
        <tspan x="114.02" y="0">t</tspan>
        <tspan x="136.82" y="0">e</tspan>
        <tspan x="159.64" y="0">r</tspan>
        <tspan x="182.44" y="0"></tspan>
        <tspan x="205.25" y="0">S</tspan>
        <tspan x="228.07" y="0">c</tspan>
        <tspan x="250.87" y="0">i</tspan>
        <tspan x="273.69" y="0">e</tspan>
        <tspan x="296.48" y="0">n</tspan>
        <tspan x="319.3" y="0">c</tspan>
        <tspan x="342.1" y="0">e</tspan>
    </text>
    <text class="cls-5" transform="translate(416.27 289.32)">W
        <tspan x="12.01" y="0">u</tspan>
        <tspan x="24" y="0">h</tspan>
        <tspan x="36" y="0">a</tspan>
        <tspan x="48.01" y="0">n</tspan>
        <tspan x="60.04" y="0">,</tspan>
        <tspan x="72.04" y="0">C</tspan>
        <tspan x="84.03" y="0">h</tspan>
        <tspan x="96.04" y="0">i</tspan>
        <tspan x="108.04" y="0">n</tspan>
        <tspan x="120.05" y="0">a</tspan>
    </text>
    <text class="cls-6" transform="translate(159.02 147.55) rotate(90)">2
        <tspan x="18.01" y="0">0</tspan>
    </text>
    <text class="cls-7" transform="translate(246.26 443.32)">O
        <tspan x="15.02" y="0">b</tspan>
        <tspan x="30.01" y="0">j</tspan>
        <tspan x="45.03" y="0">e</tspan>
        <tspan x="60.03" y="0">c</tspan>
        <tspan x="75.02" y="0">t</tspan>
        <tspan x="90.03" y="0">-</tspan>
        <tspan x="105.05" y="0">O</tspan>
        <tspan x="120.06" y="0">r</tspan>
        <tspan x="135.05" y="0">i</tspan>
        <tspan x="150.05" y="0">e</tspan>
        <tspan x="165.08" y="0">n</tspan>
        <tspan x="180.08" y="0">t</tspan>
        <tspan x="195.06" y="0">e</tspan>
        <tspan x="210.1" y="0">d</tspan>
        <tspan x="225.1" y="0"></tspan>
        <tspan x="240.08" y="0">D</tspan>
        <tspan x="255.09" y="0">e</tspan>
        <tspan x="270.11" y="0">s</tspan>
        <tspan x="285.11" y="0">i</tspan>
        <tspan x="300.11" y="0">g</tspan>
        <tspan x="315.12" y="0">n</tspan>
    </text>
    <text class="cls-4" transform="translate(275.27 385.32)">N
        <tspan x="22.81" y="0">o</tspan>
        <tspan x="45.6" y="0">r</tspan>
        <tspan x="68.4" y="0">t</tspan>
        <tspan x="91.23" y="0">h</tspan>
        <tspan x="114.02" y="0">e</tspan>
        <tspan x="136.82" y="0">a</tspan>
        <tspan x="159.64" y="0">s</tspan>
        <tspan x="182.44" y="0">t</tspan>
        <tspan x="205.25" y="0">e</tspan>
        <tspan x="228.07" y="0">r</tspan>
        <tspan x="250.87" y="0">n</tspan>
        <tspan x="273.69" y="0"></tspan>
        <tspan x="296.48" y="0">U</tspan>
        <tspan x="319.3" y="0">n</tspan>
        <tspan x="342.1" y="0">i</tspan>
        <tspan x="364.9" y="0">v</tspan>
        <tspan x="387.71" y="0">e</tspan>
        <tspan x="410.52" y="0">r</tspan>
        <tspan x="433.34" y="0">s</tspan>
        <tspan x="456.14" y="0">i</tspan>
        <tspan x="478.95" y="0">t</tspan>
        <tspan x="501.76" y="0">y</tspan>
        <tspan x="524.55" y="0">.</tspan>
    </text>
    <text class="cls-7" transform="translate(416.26 474.32)">W
        <tspan x="15.02" y="0">e</tspan>
        <tspan x="30.01" y="0">b</tspan>
        <tspan x="45.03" y="0"></tspan>
        <tspan x="60.03" y="0">d</tspan>
        <tspan x="75.02" y="0">e</tspan>
        <tspan x="90.03" y="0">v</tspan>
        <tspan x="105.05" y="0">e</tspan>
        <tspan x="120.06" y="0">l</tspan>
        <tspan x="135.05" y="0">o</tspan>
        <tspan x="150.05" y="0">p</tspan>
        <tspan x="165.08" y="0">m</tspan>
        <tspan x="180.08" y="0">e</tspan>
        <tspan x="195.06" y="0">n</tspan>
        <tspan x="210.1" y="0">t</tspan>
    </text>
    <text class="cls-5" transform="translate(598.27 507.32)">A
        <tspan x="12.01" y="0">l</tspan>
        <tspan x="24" y="0">g</tspan>
        <tspan x="36" y="0">o</tspan>
        <tspan x="48.01" y="0">r</tspan>
        <tspan x="60.04" y="0">i</tspan>
        <tspan x="72.04" y="0">t</tspan>
        <tspan x="84.03" y="0">h</tspan>
        <tspan x="96.04" y="0">m</tspan>
    </text>
    <text class="cls-7" transform="translate(92.02 169.55) rotate(90)">T
        <tspan x="15.01" y="0">y</tspan>
        <tspan x="30.02" y="0">p</tspan>
        <tspan x="45.02" y="0">o</tspan>
        <tspan x="60.03" y="0">g</tspan>
        <tspan x="75.03" y="0">r</tspan>
        <tspan x="90.04" y="0">a</tspan>
        <tspan x="105.04" y="0">p</tspan>
        <tspan x="120.05" y="0">h</tspan>
        <tspan x="135.04" y="0">y</tspan>
    </text>
    <text class="cls-8" transform="translate(570.29 202.32)">J
        <tspan x="10.2" y="0">a</tspan>
        <tspan x="20.41" y="0">v</tspan>
        <tspan x="30.61" y="0">a</tspan>
    </text>
    <text class="cls-8" transform="translate(570.29 220.32)">D
        <tspan x="10.2" y="0">r</tspan>
        <tspan x="20.41" y="0">.</tspan>
        <tspan x="30.61" y="0">R</tspan>
        <tspan x="40.8" y="0">a</tspan>
        <tspan x="51.02" y="0">c</tspan>
        <tspan x="61.2" y="0">k</tspan>
        <tspan x="71.44" y="0">e</tspan>
        <tspan x="81.62" y="0">t</tspan>
    </text>
    <text class="cls-9" transform="translate(669.28 238.32)">h
        <tspan x="9.01" y="0">t</tspan>
        <tspan x="18.01" y="0">m</tspan>
        <tspan x="27" y="0">l</tspan>
    </text>
    <text class="cls-9" transform="translate(669.28 252.32)">c
        <tspan x="9.01" y="0">s</tspan>
        <tspan x="18.01" y="0">s</tspan>
    </text>
    <text class="cls-9" transform="translate(669.28 266.32)">J
        <tspan x="9.01" y="0">a</tspan>
        <tspan x="18.01" y="0">v</tspan>
        <tspan x="27" y="0">a</tspan>
        <tspan x="36.02" y="0">S</tspan>
        <tspan x="45.02" y="0">c</tspan>
        <tspan x="54.01" y="0">r</tspan>
        <tspan x="63.02" y="0">i</tspan>
        <tspan x="72.04" y="0">p</tspan>
        <tspan x="81.05" y="0">t</tspan>
    </text>
    <text class="cls-9" transform="translate(756.28 308.32)">R
        <tspan x="9.01" y="0">e</tspan>
        <tspan x="18.01" y="0">a</tspan>
        <tspan x="27" y="0">c</tspan>
        <tspan x="36.02" y="0">t</tspan>
    </text>
    <text class="cls-9" transform="translate(756.28 331.32)">M
        <tspan x="9.01" y="0">a</tspan>
        <tspan x="18.01" y="0">t</tspan>
        <tspan x="27" y="0">e</tspan>
        <tspan x="36.02" y="0">r</tspan>
        <tspan x="45.02" y="0">i</tspan>
        <tspan x="54.01" y="0">a</tspan>
        <tspan x="63.02" y="0">l</tspan>
        <tspan x="72.04" y="0">U</tspan>
        <tspan x="81.05" y="0">I</tspan>
    </text>
    <text class="cls-9" transform="translate(669.28 283.32)">B
        <tspan x="9.01" y="0">o</tspan>
        <tspan x="18.01" y="0">o</tspan>
        <tspan x="27" y="0">t</tspan>
        <tspan x="36.02" y="0">s</tspan>
        <tspan x="45.02" y="0">t</tspan>
        <tspan x="54.01" y="0">r</tspan>
        <tspan x="63.02" y="0">a</tspan>
        <tspan x="72.04" y="0">p</tspan>
    </text>
    <text class="cls-10" transform="translate(175.02 426.56) rotate(90)">S
        <tspan x="11.39" y="0">u</tspan>
        <tspan x="22.79" y="0">r</tspan>
        <tspan x="34.2" y="0">f</tspan>
        <tspan x="45.6" y="0">a</tspan>
        <tspan x="57.01" y="0">c</tspan>
        <tspan x="68.42" y="0">e</tspan>
        <tspan x="79.83" y="0"></tspan>
        <tspan x="91.23" y="0">D</tspan>
        <tspan x="102.62" y="0">r</tspan>
        <tspan x="114.04" y="0">a</tspan>
        <tspan x="125.45" y="0">w</tspan>
        <tspan x="136.85" y="0">i</tspan>
        <tspan x="148.27" y="0">n</tspan>
        <tspan x="159.66" y="0">g</tspan>
    </text>
    <text class="cls-9" transform="translate(205.02 524.54) rotate(90)">I
        <tspan x="9" y="0">l</tspan>
        <tspan x="18.02" y="0">l</tspan>
        <tspan x="27.01" y="0">u</tspan>
        <tspan x="36.03" y="0">s</tspan>
        <tspan x="45.03" y="0">t</tspan>
        <tspan x="54.05" y="0">r</tspan>
        <tspan x="63.04" y="0">a</tspan>
        <tspan x="72.04" y="0">t</tspan>
        <tspan x="81.05" y="0">o</tspan>
        <tspan x="90.06" y="0">r</tspan>
    </text>
    <text class="cls-9" transform="translate(227.02 579.54) rotate(90)">I
        <tspan x="9" y="0">n</tspan>
        <tspan x="18.02" y="0">d</tspan>
        <tspan x="27.01" y="0">e</tspan>
        <tspan x="36.03" y="0">s</tspan>
        <tspan x="45.03" y="0">i</tspan>
        <tspan x="54.05" y="0">g</tspan>
        <tspan x="63.04" y="0">n</tspan>
    </text>
    <text class="cls-9" transform="translate(247.02 604.54) rotate(90)">P
        <tspan x="9" y="0">h</tspan>
        <tspan x="18.02" y="0">o</tspan>
        <tspan x="27.01" y="0">t</tspan>
        <tspan x="36.03" y="0">o</tspan>
        <tspan x="45.03" y="0">S</tspan>
        <tspan x="54.05" y="0">h</tspan>
        <tspan x="63.04" y="0">o</tspan>
        <tspan x="72.04" y="0">p</tspan>
    </text>
    <text class="cls-8" transform="translate(624.29 537.32)">D
        <tspan x="10.2" y="0">i</tspan>
        <tspan x="20.41" y="0">s</tspan>
        <tspan x="30.61" y="0">c</tspan>
        <tspan x="40.8" y="0">r</tspan>
        <tspan x="51.02" y="0">e</tspan>
        <tspan x="61.2" y="0">t</tspan>
        <tspan x="71.44" y="0">e</tspan>
        <tspan x="81.62" y="0"></tspan>
        <tspan x="91.82" y="0">S</tspan>
        <tspan x="102.04" y="0">t</tspan>
        <tspan x="112.23" y="0">r</tspan>
        <tspan x="122.47" y="0">u</tspan>
        <tspan x="132.65" y="0">c</tspan>
        <tspan x="142.86" y="0">t</tspan>
        <tspan x="153.08" y="0">u</tspan>
        <tspan x="163.27" y="0">r</tspan>
        <tspan x="173.49" y="0">e</tspan>
    </text>
    <path class="cls-11" d="M306.58,586.53h34.84v33.89H306.58Z"/>
    <path class="cls-12"
          d="M305,585v37h38V585Zm1.58,1.58h34.84v33.89H306.58Zm7.6,7.1c0-.11.23-.19.35-.19,1-.05,2.52-.08,4.09-.08,4.38,0,6.09,2.4,6.09,5.49,0,4-2.91,5.75-6.49,5.75-.6,0-.81,0-1.23,0v6.08c0,.12-.05.19-.19.19h-2.43c-.12,0-.19-.05-.19-.19v-17ZM317,602a11.11,11.11,0,0,0,1.28,0c1.86,0,3.6-.65,3.6-3.17,0-2-1.25-3-3.36-3-.63,0-1.23,0-1.52,0V602Zm13.62-1.88c-1.25,0-1.68.63-1.68,1.16s.28,1,2,1.83c2.49,1.21,3.26,2.36,3.26,4.06,0,2.53-1.93,3.89-4.54,3.89a6.8,6.8,0,0,1-3.24-.68c-.12,0-.13-.13-.13-.25v-2.33c0-.16.08-.21.19-.13a5.89,5.89,0,0,0,3.18.94c1.25,0,1.77-.53,1.77-1.24s-.36-1.08-2-1.9c-2.25-1.08-3.18-2.17-3.18-4,0-2,1.6-3.74,4.37-3.74a7.18,7.18,0,0,1,2.83.45.34.34,0,0,1,.16.31v2.17c0,.13-.08.21-.24.16a5.34,5.34,0,0,0-2.75-.71Z"/>
    <path class="cls-13" d="M375.6,544.58h34.79v33.84H375.6Z"/>
    <path class="cls-14"
          d="M374,543v37H412V543Zm1.58,1.58h34.79v33.84H375.58Zm12.3,24.06c0,.16,0,.21-.21.21h-2.43c-.16,0-.21-.08-.21-.21v-17c0-.16.08-.21.21-.21h2.45c.13,0,.19,0,.19.18Zm2.79-6.12c0-3.78,2.5-6.73,6.49-6.73a7.4,7.4,0,0,1,.83,0v-4.2a.15.15,0,0,1,.16-.16h2.57c.13,0,.16,0,.16.13v14.79A11.7,11.7,0,0,0,401,568c0,.11,0,.13-.14.19a9.62,9.62,0,0,1-4.15.93c-3.49,0-6-2.16-6-6.57Zm7.32-4.15a2.38,2.38,0,0,0-.93-.15c-2,0-3.47,1.56-3.47,4.17,0,3,1.46,4.17,3.28,4.17a3.06,3.06,0,0,0,1.12-.18v-8Z"/>
    <path class="cls-15" d="M446,595.89h34.48v33.54H446Z"/>
    <path class="cls-16" d="M444.38,594.33V631H482V594.33Zm1.57,1.56h34.48v33.54H446Z"/>
    <path class="cls-16"
          d="M457.44,615.09l-1.24,4.7c0,.13-.08.16-.23.16h-2.31c-.15,0-.19-.05-.15-.23L458,604.14a5.15,5.15,0,0,0,.15-1.3c0-.11.05-.16.13-.16h3.29c.11,0,.16,0,.19.16l5,16.91c0,.12,0,.2-.12.2H464c-.13,0-.21,0-.24-.14l-1.3-4.72Zm4.36-2.54c-.44-1.74-1.48-5.53-1.87-7.36h0c-.33,1.83-1.16,4.93-1.82,7.36Zm7.05-8.71a1.53,1.53,0,0,1,1.6-1.6,1.6,1.6,0,1,1,0,3.2,1.48,1.48,0,0,1-1.57-1.6Zm.19,3.56c0-.13,0-.19.19-.19h2.46c.12,0,.19,0,.19.19v12.36c0,.13,0,.19-.19.19h-2.43c-.16,0-.21-.08-.21-.2V607.4Z"/>
    <circle id="circle" class="cls-17" cx="974.81" cy="161.54" r="15.54"/>
    <path id="blue-piece" class="cls-18"
          d="M987,171.13A15.54,15.54,0,0,0,974.81,146a15.62,15.62,0,0,0-5.32.93C975.8,150.24,984.14,161,987,171.13Z"/>
    <path id="left-red-piece" class="cls-19"
          d="M972.58,155.91a27.06,27.06,0,0,0-8-6.06,15.54,15.54,0,0,0-1.46,21.92A43.83,43.83,0,0,1,972.58,155.91Z"/>
    <path id="bottom-red-piece" class="cls-19"
          d="M975.44,159.44a36.3,36.3,0,0,0-7.93,15.83,15.59,15.59,0,0,0,14.77-.1A42.8,42.8,0,0,0,975.44,159.44Z"/>
    <path class="cls-20" d="M926.86,289.45,924,257.39h31.4l-2.86,32L939.67,293"/>
    <path class="cls-21" d="M939.7,290.27V260h12.84l-2.45,27.35"/>
    <path class="cls-22"
          d="M929.83,264h9.87v3.92h-5.56l.37,4h5.19v3.92h-8.79m.17,2H935l.27,3.15,4.4,1.17v4.1L931.63,284"/>
    <path class="cls-17" d="M949.53,264h-9.85v3.92h9.49m-.36,4h-9.13v3.93h4.85l-.46,5.11-4.39,1.17v4.09l8.05-2.24"/>
    <polygon id="polygon2989" class="cls-23"
             points="924 191.31 921.09 223.97 907.98 227.6 894.91 223.97 892 191.31 924 191.31"/>
    <polygon id="polygon2991" class="cls-24" points="918.59 221.89 921.08 193.98 908 193.98 908 224.82 918.59 221.89"/>
    <polygon id="polygon2993" class="cls-22" points="898.68 206.09 899.03 210.1 908 210.1 908 206.09 898.68 206.09"/>
    <polygon id="polygon2995" class="cls-22"
             points="908 197.99 907.99 197.99 897.96 197.99 898.32 201.99 908 201.99 908 197.99"/>
    <polygon id="polygon2997" class="cls-22"
             points="908 220.67 908 216.5 907.98 216.5 903.52 215.3 903.24 212.1 901.07 212.1 899.21 212.1 899.77 218.39 907.98 220.67 908 220.67"/>
    <polygon id="polygon3005" class="cls-17"
             points="912.92 210.1 912.45 215.29 907.99 216.5 907.99 220.67 916.2 218.39 916.26 217.72 917.2 207.17 917.3 206.09 918.02 197.99 907.99 197.99 907.99 201.99 913.63 201.99 913.27 206.09 907.99 206.09 907.99 210.1 912.92 210.1"/>
    <g id="layer1">
        <rect id="rect3050" class="cls-25" x="1077" y="183.07" width="29.08" height="29.2" rx="4.7"/>
        <g id="text3836">
            <path id="path3841" class="cls-17"
                  d="M1091.76,195.65a2.58,2.58,0,0,0,1.69-.49,2,2,0,0,0,0-2.85,2.52,2.52,0,0,0-1.69-.49h-2.61v3.83h2.61m.16,7.91a3.22,3.22,0,0,0,2.13-.6,2.17,2.17,0,0,0,.72-1.79,2.13,2.13,0,0,0-.71-1.76,3.31,3.31,0,0,0-2.14-.59h-2.77v4.74h2.77m4.38-6.51a4.19,4.19,0,0,1,2.35,1.61,4.86,4.86,0,0,1,.84,2.89,4.5,4.5,0,0,1-1.79,3.9,9.41,9.41,0,0,1-5.44,1.28h-7.82V188.64h7.08c2.53,0,4.37.38,5.5,1.14a4.06,4.06,0,0,1,1.72,3.65,3.92,3.92,0,0,1-.63,2.25,3.63,3.63,0,0,1-1.81,1.37"/>
        </g>
    </g>
    <g id="Page-1">
        <g id="icon_IntelliJIDEA" data-name="icon IntelliJIDEA">
            <polygon id="Shape" class="cls-26"
                     points="828.61 190.51 820.37 184.03 824.46 176.43 836.2 181 828.61 190.51"/>
            <polygon class="cls-27"
                     points="854 173.08 853.36 192.74 840.29 198 832.43 192.9 843.91 181 838.91 169.95 843.43 164.53 854 173.08"/>
            <polygon class="cls-28" points="854 173.08 843.64 185.3 838.91 169.95 843.43 164.53 854 173.08"/>
            <polygon class="cls-29"
                     points="836.36 192.21 822.76 197.15 824.94 189.5 827.76 180.04 820 177.44 824.94 164 835.57 165.28 846.08 177.28 836.36 192.21"/>
            <g id="Group">
                <rect id="Rectangle-path" x="826.38" y="170.38" width="21.25" height="21.25"/>
                <rect class="cls-17" x="828.39" y="187.64" width="7.97" height="1.33"/>
                <polygon class="cls-30"
                         points="834.08 174.73 834.08 173.14 829.72 173.14 829.72 174.73 830.94 174.73 830.94 180.31 829.72 180.31 829.72 181.96 834.08 181.96 834.08 180.31 832.86 180.31 832.86 174.73 834.08 174.73"/>
                <path class="cls-30"
                      d="M838.33,182.06a3.52,3.52,0,0,1-1.75-.37,3.89,3.89,0,0,1-1.17-1l1.22-1.38a3.74,3.74,0,0,0,.74.64,1.5,1.5,0,0,0,.85.21,1,1,0,0,0,.85-.37,1.55,1.55,0,0,0,.32-1.11V173h2v5.74a3.6,3.6,0,0,1-.22,1.38,2.63,2.63,0,0,1-.74,1.17,3.77,3.77,0,0,1-2.07.74"/>
            </g>
        </g>
    </g>
    <path class="cls-31"
          d="M1041.3,223.63c0-2.27-2.85-4.42-7.21-5.76,1-4.45.56-8-1.41-9.12a3.13,3.13,0,0,0-1.57-.39v1.56a1.61,1.61,0,0,1,.8.18c.95.55,1.36,2.62,1,5.29a20.65,20.65,0,0,1-.35,2.06,33.61,33.61,0,0,0-4.44-.76,35.29,35.29,0,0,0-2.91-3.5c2.28-2.12,4.42-3.28,5.87-3.28v-1.56h0c-1.92,0-4.44,1.37-7,3.75-2.55-2.36-5.07-3.72-7-3.72v1.56c1.45,0,3.6,1.16,5.87,3.26a33.68,33.68,0,0,0-2.88,3.49,31.91,31.91,0,0,0-4.45.77,20.23,20.23,0,0,1-.36-2c-.33-2.67.07-4.75,1-5.3a1.51,1.51,0,0,1,.8-.18v-1.56h0a3.16,3.16,0,0,0-1.58.39c-2,1.13-2.4,4.66-1.39,9.1-4.35,1.34-7.18,3.49-7.18,5.75s2.85,4.43,7.21,5.76c-1,4.45-.56,8,1.41,9.12a3.13,3.13,0,0,0,1.57.39c1.93,0,4.44-1.37,7-3.75,2.54,2.37,5.06,3.72,7,3.72a3.06,3.06,0,0,0,1.58-.39c2-1.13,2.41-4.66,1.39-9.1C1038.47,228.05,1041.3,225.9,1041.3,223.63Zm-9.1-4.66c-.26.9-.58,1.83-1,2.76-.28-.56-.58-1.12-.91-1.68s-.67-1.1-1-1.63A28,28,0,0,1,1032.2,219Zm-3.2,7.44c-.55,1-1.11,1.84-1.69,2.67-1,.09-2.1.14-3.16.14s-2.11-.05-3.15-.13c-.58-.83-1.14-1.72-1.69-2.66s-1-1.84-1.45-2.78c.43-.94.92-1.87,1.44-2.79s1.11-1.84,1.69-2.67c1-.09,2.1-.14,3.16-.14s2.11,0,3.15.13c.58.84,1.14,1.72,1.69,2.66s1,1.85,1.45,2.78C1030,224.56,1029.52,225.5,1029,226.41Zm2.25-.91c.38.94.7,1.88,1,2.79-.92.22-1.88.41-2.88.56.34-.54.68-1.09,1-1.66S1031,226.06,1031.25,225.5Zm-7.09,7.46a29.29,29.29,0,0,1-1.94-2.23c.63,0,1.27.05,1.92.05s1.31,0,1.95-.05A27.17,27.17,0,0,1,1024.16,233Zm-5.2-4.11c-1-.15-2-.33-2.86-.56.25-.9.58-1.83.94-2.76.29.56.59,1.12.92,1.68S1018.62,228.31,1019,228.85Zm5.17-14.55a29.29,29.29,0,0,1,1.94,2.23c-.63,0-1.27,0-1.92,0s-1.31,0-1.94,0A29.18,29.18,0,0,1,1024.13,214.3Zm-5.17,4.12c-.35.53-.69,1.09-1,1.65s-.62,1.12-.91,1.68c-.38-.94-.7-1.87-1-2.78C1017,218.75,1018,218.56,1019,218.42Zm-6.33,8.75c-2.48-1.06-4.08-2.44-4.08-3.54s1.6-2.49,4.08-3.54a19.83,19.83,0,0,1,1.93-.7,33.77,33.77,0,0,0,1.58,4.25,32.38,32.38,0,0,0-1.55,4.24C1013.89,227.66,1013.24,227.43,1012.63,227.17Zm3.76,10c-.95-.55-1.36-2.62-1-5.29a20.65,20.65,0,0,1,.35-2.06,32,32,0,0,0,4.44.76,35.29,35.29,0,0,0,2.91,3.5c-2.28,2.12-4.42,3.28-5.87,3.28A1.67,1.67,0,0,1,1016.39,237.16Zm16.58-5.33c.33,2.67-.07,4.75-1,5.3a1.51,1.51,0,0,1-.8.18c-1.45,0-3.6-1.15-5.87-3.26a33.52,33.52,0,0,0,2.88-3.48,33.45,33.45,0,0,0,4.45-.77A17.74,17.74,0,0,1,1033,231.83Zm2.69-4.66a18.92,18.92,0,0,1-1.93.7,33.66,33.66,0,0,0-1.57-4.25,33.89,33.89,0,0,0,1.55-4.24c.69.22,1.35.45,2,.71,2.48,1.06,4.08,2.44,4.08,3.54S1038.14,226.12,1035.66,227.17Z"/>
    <circle class="cls-31" cx="1024.14" cy="223.63" r="3.2"/>
    <path class="cls-32" d="M1366,768H813c0-305.41,247.59-553,553-553Z"/>
    <path class="cls-33" d="M1366,768H1026c0-187.78,152.22-340,340-340Z"/>
    <g id="g5193">
        <path id="path5113" class="cls-34"
              d="M1001,303.62,998,271h31.88L1027,303.59l-13,3.68Zm23.59-1.78,2.47-27.91h-13l.1,30.78ZM1012.75,278h-3.17l0,16.7-6.16-1.67,0,3.81,9.35,2.53V278Z"/>
        <path id="path5159" class="cls-35"
              d="M1011.7,299.08c-.41-.13-2.43-.68-4.5-1.23l-3.74-1V295c0-1.84,0-1.88.19-1.81l3,.84,2.85.78,0-8.33,0-8.33h3.11v10.6c0,8.41,0,10.59-.12,10.59l-.87-.22Z"/>
        <path id="path5157" class="cls-36" d="M1003.4,296.86l0-3.81s3.93,1.1,6.16,1.67l0-16.68h3.17v21.35l-9.35-2.53Z"/>
        <path id="path5117" class="cls-37"
              d="M1014,273.92h13l-2.47,27.9L1014,304.7Zm9.91,23.23.85-10.43-6.34.71v-5.58l6.77,0,.27-3.81-10.21.05.14,13.86,6.17-1.06-.09,3.08-6.22,1.66.06,3.78,8.6-2.24Z"/>
    </g>
</svg>