<?xml version="1.0" encoding="utf-8"?>
<!-- Generator: Adobe Illustrator 24.0.1, SVG Export Plug-In . SVG Version: 6.00 Build 0)  -->
<svg version="1.1" xmlns="http://www.w3.org/2000/svg" xmlns:xlink="http://www.w3.org/1999/xlink" x="0px" y="0px"
	 viewBox="0 0 1366 768" style="enable-background:new 0 0 1366 768;" xml:space="preserve">
<style type="text/css">
	.st0{fill:none;}
	.st1{fill:#5382A1;}
	.st2{fill:#E76F00;}
	.st3{fill:#001D26;}
	.st4{fill:#00C8FF;}
	.st5{fill-rule:evenodd;clip-rule:evenodd;fill:url(#SVGID_20_);}
	.st6{fill-rule:evenodd;clip-rule:evenodd;fill:#FF408C;}
	.st7{fill:#261300;}
	.st8{fill:#FF7C00;}
	.st9{fill:#FFFFFF;}
	.st10{fill:#3E5BA9;}
	.st11{fill:#9F1D20;}
	.st12{fill:#E44D26;}
	.st13{fill:#F16529;}
	.st14{fill:#EBEBEB;}
	.st15{fill:#264DE4;}
	.st16{fill:#2965F1;}
	.st17{fill:url(#rect3050_1_);}
	.st18{fill-rule:evenodd;clip-rule:evenodd;fill:url(#Shape_1_);}
	.st19{fill-rule:evenodd;clip-rule:evenodd;fill:url(#SVGID_21_);}
	.st20{fill-rule:evenodd;clip-rule:evenodd;fill:url(#SVGID_22_);}
	.st21{fill-rule:evenodd;clip-rule:evenodd;fill:url(#SVGID_23_);}
	.st22{fill-rule:evenodd;clip-rule:evenodd;}
	.st23{fill-rule:evenodd;clip-rule:evenodd;fill:#FFFFFF;}
	.st24{fill:#61DAFB;}
	.st25{fill:#D4B830;}
	.st26{opacity:0.986;fill:#EBEBEB;fill-opacity:0;enable-background:new    ;}
	.st27{opacity:0.986;fill:#EBEBEB;fill-opacity:0.9216;enable-background:new    ;}
	.st28{fill:#FDD83C;}
	.st29{fill:#666666;}
	.st30{opacity:0.47;}
	.st31{fill:#FFFFFF;stroke:#FFFFFF;stroke-miterlimit:10;}
	.st32{opacity:0.43;}
	.st33{opacity:0.39;}
	.st34{stroke:#000000;stroke-width:0.5;}
	.st35{fill:#FFFFFF;stroke:#000000;stroke-width:0.5;}
</style>
<g id="Layer_1">
	<g>
		<rect x="0.5" y="0.5" width="1365" height="767"/>
		<path d="M1365,1v766H1V1H1365 M1366,0H0v768h1366V0L1366,0z"/>
	</g>
	<path id="SVGID_x5F_1_x5F_" class="st0" d="M-121.48,364.5h541"/>
	<text>	<textPath  xlink:href="#SVGID_x5F_1_x5F_" startOffset="34.473%">
<tspan  class="st9" style="font-family:'CourierNewPSMT'; font-size:22px;">Graphic Design</tspan>	</textPath>
</text>
	<g>
		<path class="st1" d="M1002.38,221.84c0,0-1.67,0.97,1.19,1.3c3.46,0.4,5.23,0.34,9.05-0.38c0,0,1,0.63,2.41,1.17
			C1006.47,227.6,995.66,223.72,1002.38,221.84"/>
		<path class="st1" d="M1001.34,217.06c0,0-1.87,1.39,0.99,1.68c3.7,0.38,6.62,0.41,11.68-0.56c0,0,0.7,0.71,1.8,1.1
			C1005.46,222.3,993.93,219.51,1001.34,217.06"/>
		<path class="st2" d="M1010.15,208.94c2.11,2.43-0.55,4.61-0.55,4.61s5.35-2.76,2.9-6.23c-2.3-3.23-4.06-4.83,5.48-10.36
			C1017.97,196.96,1003.01,200.7,1010.15,208.94"/>
		<path class="st1" d="M1021.47,225.38c0,0,1.24,1.02-1.36,1.81c-4.94,1.5-20.56,1.95-24.9,0.06c-1.56-0.68,1.37-1.62,2.29-1.82
			c0.96-0.21,1.51-0.17,1.51-0.17c-1.73-1.22-11.21,2.4-4.81,3.44C1011.64,231.53,1026,227.42,1021.47,225.38"/>
		<path class="st1" d="M1003.19,212.1c0,0-7.95,1.89-2.81,2.57c2.17,0.29,6.49,0.22,10.51-0.11c3.29-0.28,6.59-0.87,6.59-0.87
			s-1.16,0.5-2,1.07c-8.07,2.12-23.66,1.13-19.17-1.04C1000.1,211.89,1003.19,212.1,1003.19,212.1"/>
		<path class="st1" d="M1017.44,220.06c8.2-4.26,4.41-8.36,1.76-7.81c-0.65,0.14-0.94,0.25-0.94,0.25s0.24-0.38,0.7-0.54
			c5.24-1.84,9.26,5.43-1.69,8.31C1017.28,220.28,1017.4,220.17,1017.44,220.06"/>
		<path class="st2" d="M1012.5,188.03c0,0,4.54,4.54-4.31,11.53c-7.1,5.6-1.62,8.8,0,12.45c-4.14-3.74-7.18-7.03-5.14-10.09
			C1006.03,197.43,1014.33,195.25,1012.5,188.03"/>
		<path class="st1" d="M1003.99,231.61c7.87,0.5,19.96-0.28,20.25-4c0,0-0.55,1.41-6.51,2.53c-6.72,1.26-15.01,1.12-19.92,0.31
			C997.81,230.45,998.82,231.28,1003.99,231.61"/>
	</g>
	<path id="SVGID_x5F_2_x5F_" class="st0" d="M679.5,740.32H2045"/>
	<text>	<textPath  xlink:href="#SVGID_x5F_2_x5F_" startOffset="41.974%">
<tspan  class="st9" style="font-family:'CourierNewPSMT'; font-size:10px;">I’m from here!</tspan>	</textPath>
</text>
	<path id="SVGID_x5F_3_x5F_" class="st0" d="M-338.5,289.32H1027"/>
	<text>	<textPath  xlink:href="#SVGID_x5F_3_x5F_" startOffset="41.974%">
<tspan  class="st9" style="font-family:'CourierNewPSMT'; font-size:20px;">Object-Oriented Design</tspan>	</textPath>
</text>
	<path id="SVGID_x5F_4_x5F_" class="st0" d="M-520.5,452.32H950"/>
	<text>	<textPath  xlink:href="#SVGID_x5F_4_x5F_" startOffset="41.974%">
<tspan  class="st9" style="font-family:'CourierNewPS-BoldMT'; font-size:30px;">Khoury College of Computer Sciences</tspan>	</textPath>
</text>
	<path id="SVGID_x5F_5_x5F_" class="st0" d="M-349.5,494.32H1016"/>
	<text>	<textPath  xlink:href="#SVGID_x5F_5_x5F_" startOffset="41.974%">
<tspan  class="st9" style="font-family:'CourierNewPSMT'; font-size:20px;">Web Development</tspan>	</textPath>
</text>
	<path id="SVGID_x5F_6_x5F_" class="st0" d="M40.5,492.32H1406"/>
	<text>	<textPath  xlink:href="#SVGID_x5F_6_x5F_" startOffset="41.974%">
<tspan  class="st9" style="font-family:'CourierNewPSMT'; font-size:15px;">Algorithm</tspan>	</textPath>
</text>
	<path id="SVGID_x5F_7_x5F_" class="st0" d="M-47.48,235.5h541"/>
	<text>	<textPath  xlink:href="#SVGID_x5F_7_x5F_" startOffset="34.473%">
<tspan  class="st9" style="font-family:'CourierNewPSMT'; font-size:16px;">Typography</tspan>	</textPath>
</text>
	<path id="SVGID_x5F_8_x5F_" class="st0" d="M283.5,131.32H1649"/>
	<text>	<textPath  xlink:href="#SVGID_x5F_8_x5F_" startOffset="41.974%">
<tspan  class="st9" style="font-family:'CourierNewPSMT'; font-size:17px;">Java</tspan>	</textPath>
</text>
	<path id="SVGID_x5F_9_x5F_" class="st0" d="M298.5,186.32H1664"/>
	<text>	<textPath  xlink:href="#SVGID_x5F_9_x5F_" startOffset="41.974%">
<tspan  class="st9" style="font-family:'CourierNewPSMT'; font-size:17px;">Dr.Racket</tspan>	</textPath>
</text>
	<path id="SVGID_x5F_10_x5F_" class="st0" d="M612.5,371.32H1978"/>
	<text>	<textPath  xlink:href="#SVGID_x5F_10_x5F_" startOffset="41.974%">
<tspan  class="st9" style="font-family:'CourierNewPSMT'; font-size:15px;">html</tspan>	</textPath>
</text>
	<path id="SVGID_x5F_11_x5F_" class="st0" d="M597.5,405.32H1963"/>
	<text>	<textPath  xlink:href="#SVGID_x5F_11_x5F_" startOffset="41.974%">
<tspan  class="st9" style="font-family:'CourierNewPSMT'; font-size:15px;">css</tspan>	</textPath>
</text>
	<path id="SVGID_x5F_12_x5F_" class="st0" d="M631.5,445.32H1997"/>
	<text>	<textPath  xlink:href="#SVGID_x5F_12_x5F_" startOffset="41.974%">
<tspan  class="st9" style="font-family:'CourierNewPSMT'; font-size:15px;">JavaScript</tspan>	</textPath>
</text>
	<path id="SVGID_x5F_13_x5F_" class="st0" d="M521.5,420.32H1887"/>
	<text>	<textPath  xlink:href="#SVGID_x5F_13_x5F_" startOffset="41.974%">
<tspan  class="st9" style="font-family:'CourierNewPSMT'; font-size:15px;">React</tspan>	</textPath>
</text>
	<path id="SVGID_x5F_14_x5F_" class="st0" d="M172.5,95.32H1538"/>
	<text>	<textPath  xlink:href="#SVGID_x5F_14_x5F_" startOffset="41.974%">
<tspan  class="st9" style="font-family:'CourierNewPSMT'; font-size:15px;">MaterialUI</tspan>	</textPath>
</text>
	<path id="SVGID_x5F_15_x5F_" class="st0" d="M692.5,333.32H2058"/>
	<text>	<textPath  xlink:href="#SVGID_x5F_15_x5F_" startOffset="41.974%">
<tspan  class="st9" style="font-family:'CourierNewPSMT'; font-size:15px;">Bootstrap</tspan>	</textPath>
</text>
	<path id="SVGID_x5F_16_x5F_" class="st0" d="M-88.48,704.5h541"/>
	<text>	<textPath  xlink:href="#SVGID_x5F_16_x5F_" startOffset="34.473%">
<tspan  class="st9" style="font-family:'CourierNewPSMT'; font-size:15px;">Illustrator</tspan>	</textPath>
</text>
	<path id="SVGID_x5F_17_x5F_" class="st0" d="M105.52,696.5h541"/>
	<text>	<textPath  xlink:href="#SVGID_x5F_17_x5F_" startOffset="34.473%">
<tspan  class="st9" style="font-family:'CourierNewPSMT'; font-size:15px;">Indesign</tspan>	</textPath>
</text>
	<path id="SVGID_x5F_18_x5F_" class="st0" d="M-8.48,662.5h541"/>
	<text>	<textPath  xlink:href="#SVGID_x5F_18_x5F_" startOffset="34.473%">
<tspan  class="st9" style="font-family:'CourierNewPSMT'; font-size:15px;">PhotoShop</tspan>	</textPath>
</text>
	<path id="SVGID_x5F_19_x5F_" class="st0" d="M-85.5,541.32H1280"/>
	<text>	<textPath  xlink:href="#SVGID_x5F_19_x5F_" startOffset="41.974%">
<tspan  class="st9" style="font-family:'CourierNewPSMT'; font-size:16px;">Discrete Structure</tspan>	</textPath>
</text>
	<g>
		<path class="st3" d="M238.58,584.53h34.83v33.88h-34.83V584.53z"/>
		<path class="st4" d="M237,582.95V620h38v-37.05H237z M238.58,584.53h34.83v33.88h-34.83V584.53z M246.18,591.63
			c0-0.11,0.22-0.19,0.35-0.19c1.01-0.05,2.52-0.08,4.09-0.08c4.39,0,6.1,2.41,6.1,5.49c0,4.02-2.91,5.75-6.49,5.75
			c-0.6,0-0.81-0.03-1.24-0.03v6.08c0,0.13-0.05,0.19-0.19,0.19h-2.42c-0.13,0-0.19-0.05-0.19-0.19V591.63L246.18,591.63z
			 M249,600.03c0.36,0.03,0.65,0.03,1.28,0.03c1.85,0,3.59-0.65,3.59-3.17c0-2.01-1.25-3.02-3.36-3.02c-0.63,0-1.24,0.03-1.52,0.05
			V600.03L249,600.03z M262.62,598.15c-1.25,0-1.68,0.63-1.68,1.16c0,0.57,0.29,0.97,1.96,1.84c2.49,1.2,3.26,2.36,3.26,4.05
			c0,2.53-1.93,3.89-4.54,3.89c-1.38,0-2.56-0.28-3.25-0.68c-0.11-0.05-0.13-0.13-0.13-0.25v-2.33c0-0.16,0.08-0.21,0.19-0.13
			c1,0.65,2.14,0.93,3.18,0.93c1.25,0,1.77-0.52,1.77-1.23c0-0.57-0.36-1.08-1.96-1.9c-2.25-1.08-3.18-2.17-3.18-3.99
			c0-2.04,1.6-3.74,4.37-3.74c1.36,0,2.31,0.21,2.83,0.44c0.13,0.08,0.16,0.21,0.16,0.32v2.17c0,0.13-0.08,0.21-0.24,0.16
			C264.68,598.42,263.65,598.15,262.62,598.15L262.62,598.15z"/>
	</g>
	<g>
		
			<radialGradient id="SVGID_20_" cx="321.4693" cy="216.1471" r="22.6794" gradientTransform="matrix(1 0 0 -1 0 770)" gradientUnits="userSpaceOnUse">
			<stop  offset="0" style="stop-color:#250012;stop-opacity:0.85"/>
			<stop  offset="0.767" style="stop-color:#250012"/>
		</radialGradient>
		<path class="st5" d="M307.6,542.58h34.79v33.84H307.6V542.58z"/>
		<path class="st6" d="M306,541v37h37.95v-37H306z M307.58,542.58h34.79v33.84h-34.79V542.58z M319.88,566.64
			c0,0.16-0.03,0.21-0.21,0.21h-2.43c-0.16,0-0.21-0.08-0.21-0.21v-16.98c0-0.16,0.08-0.21,0.21-0.21h2.45
			c0.13,0,0.18,0.05,0.18,0.18V566.64z M322.67,560.52c0-3.78,2.5-6.73,6.49-6.73c0.34,0,0.52,0,0.83,0.03v-4.2
			c0-0.1,0.08-0.16,0.16-0.16h2.57c0.13,0,0.16,0.05,0.16,0.13v14.79c0,0.44,0,0.99,0.08,1.59c0,0.1-0.03,0.13-0.14,0.18
			c-1.36,0.65-2.79,0.94-4.15,0.94C325.18,567.09,322.67,564.93,322.67,560.52L322.67,560.52z M329.99,556.37
			c-0.23-0.1-0.55-0.16-0.94-0.16c-2.04,0-3.46,1.57-3.46,4.17c0,2.97,1.45,4.17,3.28,4.17c0.39,0,0.81-0.05,1.12-0.18V556.37
			L329.99,556.37z"/>
	</g>
	<g>
		<path class="st7" d="M358.95,602.89h34.48v33.54h-34.48V602.89z"/>
		<path class="st8" d="M357.38,601.33V638H395v-36.67H357.38z M358.95,602.89h34.48v33.54h-34.48V602.89z"/>
		<path class="st8" d="M370.44,622.09l-1.24,4.7c-0.03,0.13-0.08,0.16-0.24,0.16h-2.3c-0.16,0-0.19-0.05-0.16-0.24l4.45-15.58
			c0.08-0.28,0.13-0.53,0.16-1.3c0-0.11,0.05-0.16,0.13-0.16h3.29c0.11,0,0.16,0.03,0.19,0.16l4.98,16.91c0.03,0.13,0,0.2-0.13,0.2
			h-2.6c-0.13,0-0.2-0.03-0.24-0.14l-1.3-4.72H370.44L370.44,622.09z M374.8,619.55c-0.44-1.74-1.47-5.53-1.87-7.37h-0.03
			c-0.33,1.83-1.16,4.94-1.82,7.37H374.8z M381.85,610.84c0-1,0.71-1.6,1.6-1.6c0.96,0,1.6,0.64,1.6,1.6c0,1.03-0.67,1.6-1.63,1.6
			C382.51,612.44,381.85,611.87,381.85,610.84L381.85,610.84z M382.04,614.4c0-0.13,0.05-0.19,0.19-0.19h2.46
			c0.13,0,0.19,0.05,0.19,0.19v12.37c0,0.13-0.03,0.19-0.19,0.19h-2.43c-0.16,0-0.2-0.08-0.2-0.2V614.4H382.04z"/>
	</g>
	<g>
		<circle id="circle" class="st9" cx="1130.81" cy="48.54" r="15.54"/>
		<path id="blue-piece" class="st10" d="M1143.03,58.13c2.07-2.64,3.31-5.97,3.31-9.59c0-8.58-6.96-15.54-15.54-15.54
			c-1.87,0-3.66,0.33-5.32,0.93C1131.8,37.24,1140.14,48.04,1143.03,58.13z"/>
		<path id="left-red-piece" class="st11" d="M1128.58,42.91c-2.42-2.61-5.14-4.69-8.01-6.06c-3.25,2.85-5.3,7.03-5.3,11.69
			c0,3.92,1.45,7.5,3.84,10.23C1121.22,52.43,1125.18,46.32,1128.58,42.91z"/>
		<path id="bottom-red-piece" class="st11" d="M1131.44,46.44c-3.36,3.63-6.72,9.97-7.93,15.83c2.17,1.16,4.66,1.81,7.29,1.81
			c2.71,0,5.26-0.69,7.47-1.91C1137,56.26,1134.59,50.85,1131.44,46.44z"/>
	</g>
	<g>
		<path class="st12" d="M1068.86,216.45l-2.86-32.06h31.4l-2.86,32.04l-12.87,3.57"/>
		<path class="st13" d="M1081.7,217.27v-30.25h12.84l-2.45,27.35"/>
		<path class="st14" d="M1071.83,190.95h9.87v3.93h-5.56l0.36,4.02h5.19v3.92h-8.79 M1073.08,204.79h3.95l0.28,3.14l4.4,1.18v4.1
			l-8.07-2.25"/>
		<path class="st9" d="M1091.53,190.95h-9.85v3.93h9.49 M1090.81,198.9h-9.13v3.93h4.85l-0.46,5.11l-4.39,1.18v4.09l8.05-2.23"/>
	</g>
	<g>
		<polygon id="polygon2989" class="st15" points="1071,101.31 1068.08,133.97 1054.98,137.6 1041.91,133.97 1039,101.31 		"/>
		<polygon id="polygon2991" class="st16" points="1065.59,131.89 1068.08,103.98 1055,103.98 1055,134.82 		"/>
		<polygon id="polygon2993" class="st14" points="1045.68,116.09 1046.04,120.1 1055,120.1 1055,116.09 		"/>
		<polygon id="polygon2995" class="st14" points="1055,107.99 1054.99,107.99 1044.95,107.99 1045.32,111.99 1055,111.99 		"/>
		<polygon id="polygon2997" class="st14" points="1055,130.67 1055,126.5 1054.98,126.5 1050.52,125.3 1050.24,122.1 1048.07,122.1 
			1046.21,122.1 1046.78,128.39 1054.98,130.67 		"/>
		<polygon id="polygon3005" class="st9" points="1059.92,120.1 1059.45,125.3 1054.99,126.5 1054.99,130.67 1063.2,128.39 
			1063.26,127.72 1064.2,117.17 1064.3,116.09 1065.02,107.99 1054.99,107.99 1054.99,111.99 1060.63,111.99 1060.27,116.09 
			1054.99,116.09 1054.99,120.1 		"/>
	</g>
	<g id="layer1" transform="matrix(15.623041,0,0,15.623041,-3987.6024,-6644.8835)">
		
			<linearGradient id="rect3050_1_" gradientUnits="userSpaceOnUse" x1="280.1784" y1="446.7389" x2="281.8179" y2="448.407" gradientTransform="matrix(15.623 0 0 -15.623 -4040.5383 7413.9473)">
			<stop  offset="0" style="stop-color:#070135"/>
			<stop  offset="1" style="stop-color:#612D50"/>
		</linearGradient>
		<path id="rect3050" class="st17" d="M336.89,432.76h1.26c0.17,0,0.3,0.13,0.3,0.3v1.27c0,0.17-0.13,0.3-0.3,0.3h-1.26
			c-0.17,0-0.3-0.13-0.3-0.3v-1.27C336.59,432.89,336.73,432.76,336.89,432.76z"/>
		<g id="text3836" transform="scale(1.0052013,0.99482561)">
			<path id="path3841" class="st9" d="M335.79,435.82c0.05,0,0.08-0.01,0.11-0.03c0.02-0.02,0.04-0.05,0.04-0.09
				c0-0.04-0.01-0.07-0.04-0.09c-0.02-0.02-0.06-0.03-0.11-0.03h-0.17v0.25H335.79 M335.8,436.32c0.06,0,0.11-0.01,0.14-0.04
				c0.03-0.03,0.05-0.06,0.05-0.12c0-0.05-0.02-0.09-0.05-0.11c-0.03-0.03-0.08-0.04-0.14-0.04h-0.18v0.3H335.8 M336.08,435.91
				c0.06,0.02,0.11,0.05,0.15,0.1s0.05,0.11,0.05,0.19c0,0.11-0.04,0.2-0.11,0.25c-0.08,0.06-0.19,0.08-0.35,0.08h-0.5v-1.16h0.45
				c0.16,0,0.28,0.02,0.35,0.07c0.07,0.05,0.11,0.13,0.11,0.23c0,0.06-0.01,0.1-0.04,0.15
				C336.17,435.86,336.13,435.89,336.08,435.91"/>
		</g>
	</g>
	<g id="Page-1">
		<g id="icon_IntelliJIDEA">
			
				<linearGradient id="Shape_1_" gradientUnits="userSpaceOnUse" x1="33.2373" y1="764.9219" x2="33.7675" y2="764.9219" gradientTransform="matrix(29.8 0 0 -26.5 -28.1 20402.9023)">
				<stop  offset="0.26" style="stop-color:#F97A12"/>
				<stop  offset="0.46" style="stop-color:#B07B58"/>
				<stop  offset="0.72" style="stop-color:#577BAE"/>
				<stop  offset="0.91" style="stop-color:#1E7CE5"/>
				<stop  offset="1" style="stop-color:#087CFA"/>
			</linearGradient>
			<polygon id="Shape" class="st18" points="970.61,139.51 962.37,133.03 966.46,125.43 978.2,130 			"/>
			
				<linearGradient id="SVGID_21_" gradientUnits="userSpaceOnUse" x1="24.4016" y1="767.0462" x2="25.0436" y2="766.8173" gradientTransform="matrix(40.6 0 0 -63 -16.2 48449)">
				<stop  offset="0" style="stop-color:#F97A12"/>
				<stop  offset="0.07" style="stop-color:#CB7A3E"/>
				<stop  offset="0.15" style="stop-color:#9E7B6A"/>
				<stop  offset="0.24" style="stop-color:#757B91"/>
				<stop  offset="0.33" style="stop-color:#537BB1"/>
				<stop  offset="0.43" style="stop-color:#387CCC"/>
				<stop  offset="0.54" style="stop-color:#237CE0"/>
				<stop  offset="0.66" style="stop-color:#147CEF"/>
				<stop  offset="0.79" style="stop-color:#0B7CF7"/>
				<stop  offset="1" style="stop-color:#087CFA"/>
			</linearGradient>
			<polygon class="st19" points="996,122.08 995.36,141.74 982.29,147 974.43,141.9 985.91,130 980.91,118.95 985.43,113.53 			"/>
			
				<linearGradient id="SVGID_22_" gradientUnits="userSpaceOnUse" x1="34.6657" y1="765.6282" x2="34.4104" y2="766.1827" gradientTransform="matrix(28.4 0 0 -39.1 8.2 30069.8984)">
				<stop  offset="0" style="stop-color:#FE315D"/>
				<stop  offset="0.08" style="stop-color:#CB417E"/>
				<stop  offset="0.16" style="stop-color:#9E4E9B"/>
				<stop  offset="0.25" style="stop-color:#755BB4"/>
				<stop  offset="0.34" style="stop-color:#5365CA"/>
				<stop  offset="0.44" style="stop-color:#386DDB"/>
				<stop  offset="0.54" style="stop-color:#2374E9"/>
				<stop  offset="0.66" style="stop-color:#1478F3"/>
				<stop  offset="0.79" style="stop-color:#0B7BF8"/>
				<stop  offset="1" style="stop-color:#087CFA"/>
			</linearGradient>
			<polygon class="st20" points="996,122.08 985.64,134.3 980.91,118.95 985.43,113.53 			"/>
			
				<linearGradient id="SVGID_23_" gradientUnits="userSpaceOnUse" x1="20.6785" y1="767.0771" x2="21.1217" y2="766.5003" gradientTransform="matrix(49.1 0 0 -62.4 -48.1 47986.6016)">
				<stop  offset="0" style="stop-color:#FE315D"/>
				<stop  offset="0.04" style="stop-color:#F63462"/>
				<stop  offset="0.1" style="stop-color:#DF3A71"/>
				<stop  offset="0.17" style="stop-color:#C24383"/>
				<stop  offset="0.29" style="stop-color:#AD4A91"/>
				<stop  offset="0.55" style="stop-color:#755BB4"/>
				<stop  offset="0.92" style="stop-color:#1D76ED"/>
				<stop  offset="1" style="stop-color:#087CFA"/>
			</linearGradient>
			<polygon class="st21" points="978.36,141.21 964.76,146.15 966.94,138.5 969.76,129.04 962,126.44 966.94,113 977.57,114.28 
				988.08,126.28 			"/>
			<g id="Group" transform="translate(12.000000, 12.000000)">
				<rect id="Rectangle-path" x="956.38" y="107.38" class="st22" width="21.25" height="21.25"/>
				<g transform="translate(3.000000, 5.000000)">
					<rect x="955.39" y="119.64" class="st23" width="7.97" height="1.33"/>
					<polygon class="st23" points="961.08,106.73 961.08,105.14 956.72,105.14 956.72,106.73 957.94,106.73 957.94,112.31 
						956.72,112.31 956.72,113.96 961.08,113.96 961.08,112.31 959.86,112.31 959.86,106.73 					"/>
					<path class="st23" d="M965.33,114.06c-0.61,0.03-1.21-0.1-1.75-0.37c-0.44-0.25-0.84-0.57-1.17-0.96l1.22-1.38
						c0.22,0.24,0.47,0.46,0.74,0.64c0.26,0.15,0.55,0.22,0.85,0.21c0.33,0.03,0.65-0.11,0.85-0.37c0.25-0.32,0.36-0.72,0.32-1.12
						v-5.68h1.97v5.74c0.02,0.47-0.05,0.94-0.21,1.38c-0.14,0.45-0.4,0.85-0.74,1.17C966.8,113.77,966.08,114.02,965.33,114.06"/>
				</g>
			</g>
		</g>
	</g>
	<g>
		<path class="st24" d="M1179.3,140.63c0-2.27-2.85-4.43-7.21-5.76c1.01-4.45,0.56-7.98-1.41-9.12c-0.45-0.27-0.99-0.39-1.57-0.39
			v1.56c0.32,0,0.58,0.06,0.8,0.18c0.95,0.55,1.36,2.62,1.04,5.29c-0.08,0.66-0.2,1.35-0.36,2.06c-1.37-0.34-2.87-0.59-4.44-0.76
			c-0.94-1.29-1.92-2.47-2.91-3.5c2.28-2.12,4.42-3.28,5.87-3.28v-1.56l0,0c-1.92,0-4.44,1.37-6.98,3.75
			c-2.54-2.36-5.06-3.72-6.98-3.72v1.56c1.45,0,3.59,1.15,5.87,3.26c-0.98,1.03-1.96,2.2-2.89,3.49c-1.58,0.17-3.08,0.43-4.45,0.77
			c-0.16-0.7-0.28-1.38-0.36-2.03c-0.33-2.67,0.08-4.75,1.02-5.3c0.21-0.13,0.48-0.18,0.8-0.18v-1.56l0,0
			c-0.59,0-1.12,0.13-1.58,0.39c-1.96,1.13-2.41,4.66-1.39,9.1c-4.35,1.34-7.18,3.49-7.18,5.75c0,2.27,2.85,4.43,7.21,5.76
			c-1.01,4.45-0.56,7.98,1.41,9.12c0.45,0.27,0.99,0.39,1.57,0.39c1.92,0,4.44-1.37,6.98-3.75c2.54,2.36,5.06,3.72,6.98,3.72
			c0.59,0,1.12-0.13,1.58-0.39c1.96-1.13,2.41-4.66,1.39-9.1C1176.47,145.05,1179.3,142.9,1179.3,140.63z M1170.2,135.97
			c-0.26,0.9-0.58,1.83-0.94,2.76c-0.29-0.56-0.59-1.12-0.92-1.68c-0.32-0.56-0.66-1.1-1.01-1.64
			C1168.32,135.56,1169.28,135.74,1170.2,135.97z M1167,143.41c-0.55,0.94-1.1,1.84-1.68,2.67c-1.04,0.09-2.1,0.14-3.16,0.14
			c-1.06,0-2.11-0.05-3.15-0.13c-0.58-0.83-1.15-1.72-1.69-2.66c-0.53-0.92-1.01-1.85-1.45-2.78c0.43-0.94,0.92-1.87,1.45-2.79
			c0.55-0.94,1.1-1.84,1.68-2.67c1.04-0.09,2.1-0.14,3.16-0.14c1.06,0,2.11,0.05,3.15,0.13c0.58,0.83,1.15,1.72,1.69,2.66
			c0.53,0.92,1.01,1.85,1.45,2.78C1168,141.56,1167.52,142.5,1167,143.41z M1169.25,142.5c0.38,0.94,0.7,1.87,0.96,2.78
			c-0.92,0.22-1.88,0.41-2.88,0.56c0.34-0.54,0.69-1.09,1.01-1.66C1168.67,143.63,1168.97,143.06,1169.25,142.5z M1162.16,149.96
			c-0.65-0.67-1.3-1.42-1.94-2.24c0.63,0.03,1.27,0.05,1.92,0.05c0.66,0,1.31-0.01,1.94-0.05
			C1163.46,148.54,1162.81,149.29,1162.16,149.96z M1156.96,145.85c-0.99-0.15-1.95-0.33-2.87-0.55c0.26-0.9,0.58-1.83,0.94-2.76
			c0.29,0.56,0.59,1.12,0.92,1.68S1156.62,145.31,1156.96,145.85z M1162.13,131.3c0.65,0.67,1.3,1.42,1.94,2.24
			c-0.63-0.03-1.27-0.05-1.92-0.05c-0.66,0-1.31,0.01-1.94,0.05C1160.84,132.72,1161.49,131.97,1162.13,131.3z M1156.96,135.42
			c-0.34,0.54-0.69,1.09-1.01,1.66c-0.32,0.56-0.62,1.12-0.91,1.68c-0.38-0.94-0.7-1.87-0.96-2.78
			C1154.99,135.75,1155.96,135.56,1156.96,135.42z M1150.63,144.17c-2.47-1.06-4.08-2.44-4.08-3.54s1.6-2.49,4.08-3.54
			c0.6-0.26,1.26-0.49,1.94-0.71c0.4,1.37,0.92,2.8,1.57,4.26c-0.64,1.45-1.16,2.87-1.55,4.24
			C1151.89,144.66,1151.24,144.43,1150.63,144.17z M1154.39,154.16c-0.95-0.55-1.36-2.62-1.04-5.29c0.08-0.66,0.2-1.35,0.36-2.06
			c1.37,0.34,2.87,0.59,4.44,0.76c0.94,1.29,1.92,2.47,2.91,3.5c-2.28,2.12-4.42,3.28-5.87,3.28
			C1154.86,154.34,1154.6,154.28,1154.39,154.16z M1170.97,148.83c0.33,2.67-0.08,4.75-1.02,5.3c-0.21,0.13-0.48,0.18-0.8,0.18
			c-1.45,0-3.59-1.15-5.87-3.26c0.98-1.03,1.96-2.2,2.89-3.49c1.58-0.17,3.08-0.43,4.45-0.77
			C1170.77,147.5,1170.9,148.18,1170.97,148.83z M1173.66,144.17c-0.6,0.26-1.26,0.49-1.94,0.71c-0.4-1.37-0.92-2.8-1.57-4.26
			c0.64-1.45,1.16-2.87,1.55-4.24c0.69,0.22,1.35,0.45,1.96,0.71c2.47,1.06,4.08,2.44,4.08,3.54
			C1177.74,141.73,1176.14,143.12,1173.66,144.17z"/>
		<path class="st24" d="M1155.14,125.38L1155.14,125.38L1155.14,125.38z"/>
		<circle class="st24" cx="1162.14" cy="140.63" r="3.2"/>
		<path class="st24" d="M1169.11,125.36L1169.11,125.36L1169.11,125.36z"/>
	</g>
	<g id="g5193" transform="translate(4.988 -113.385)">
		<path id="path5113" class="st25" d="M1177.97,366l-2.96-32.58l31.88,0.01l-2.93,32.54l-13.03,3.68L1177.97,366z M1201.56,364.22
			l2.47-27.9h-13.06l0.1,30.78L1201.56,364.22z M1189.76,340.41h-3.17l-0.04,16.7l-6.16-1.68l0.01,3.82l9.35,2.52V340.41
			L1189.76,340.41z"/>
		<path id="path5159" class="st26" d="M1188.71,361.46c-0.41-0.12-2.44-0.67-4.5-1.23l-3.74-1.01v-1.88c0-1.84,0-1.88,0.19-1.82
			c0.1,0.04,1.47,0.41,3.03,0.85l2.85,0.78l0.02-8.33l0.02-8.33h3.11v10.59c0,8.42-0.02,10.59-0.11,10.59
			C1189.52,361.67,1189.13,361.57,1188.71,361.46L1188.71,361.46z"/>
		<path id="path5157" class="st27" d="M1180.41,359.25l-0.01-3.82c0,0,3.93,1.11,6.16,1.68l0.04-16.69h3.17v21.35L1180.41,359.25
			L1180.41,359.25z"/>
		<path id="path5117" class="st28" d="M1190.98,336.31h13.06l-2.47,27.9l-10.58,2.87V336.31z M1200.89,359.53l0.86-10.43l-6.34,0.71
			v-5.57l6.76-0.02l0.27-3.81l-10.21,0.05l0.14,13.85l6.17-1.06l-0.09,3.08l-6.22,1.65l0.06,3.78L1200.89,359.53L1200.89,359.53z"/>
	</g>
	<path class="st29" d="M183-36"/>
	<g class="st30">
		<line class="st31" x1="1195.5" y1="289.5" x2="465.5" y2="704.5"/>
		<line class="st31" x1="1140.5" y1="279.17" x2="505.31" y2="697.21"/>
		<line class="st31" x1="1085.5" y1="268.83" x2="545.12" y2="689.93"/>
		<line class="st31" x1="1030.5" y1="258.5" x2="584.93" y2="682.64"/>
		<line class="st31" x1="975.5" y1="248.17" x2="624.74" y2="675.36"/>
		<line class="st31" x1="920.5" y1="237.83" x2="664.55" y2="668.07"/>
		<line class="st31" x1="865.5" y1="227.5" x2="704.36" y2="660.79"/>
		<line class="st31" x1="810.5" y1="217.17" x2="744.17" y2="653.5"/>
		<line class="st31" x1="755.5" y1="206.83" x2="783.98" y2="646.21"/>
		<line class="st31" x1="700.5" y1="196.5" x2="823.79" y2="638.93"/>
		<line class="st31" x1="645.5" y1="186.17" x2="863.6" y2="631.64"/>
		<line class="st31" x1="590.5" y1="175.83" x2="903.4" y2="624.36"/>
		<line class="st31" x1="535.5" y1="165.5" x2="943.21" y2="617.07"/>
		<line class="st31" x1="480.5" y1="155.17" x2="983.02" y2="609.79"/>
		<line class="st31" x1="425.5" y1="144.83" x2="1022.83" y2="602.5"/>
		<line class="st31" x1="370.5" y1="134.5" x2="1062.64" y2="595.21"/>
		<line class="st31" x1="315.5" y1="124.17" x2="1102.45" y2="587.93"/>
		<line class="st31" x1="260.5" y1="113.83" x2="1142.26" y2="580.64"/>
		<line class="st31" x1="205.5" y1="103.5" x2="1182.07" y2="573.36"/>
		<line class="st31" x1="150.5" y1="93.17" x2="1221.88" y2="566.07"/>
		<line class="st31" x1="95.5" y1="82.83" x2="1261.69" y2="558.79"/>
		<line class="st31" x1="40.5" y1="72.5" x2="1301.5" y2="551.5"/>
	</g>
	<g transform="translate(0.000000,891.000000) scale(0.100000,-0.100000)" class="st32">
		<path class="st9" d="M12841.96,2726.14l-30.86-4.65l-9.53-10.78c-7.94-9.08-12.14-15.2-12.14-17.59c0-0.34,3.86-0.57,8.51-0.57
			h8.51v-3.06c0-1.82,0.34-5.79,0.68-8.96l0.68-5.79l-9.64-8.4l-9.76-8.4l-7.37-20.99c-4.08-11.57-7.94-23.83-8.62-27.34l-1.25-6.24
			l-15.77-9.3c-8.62-5.11-16.11-9.3-16.68-9.3c-0.45,0-8.51,3.06-17.81,6.92c-9.87,4.08-17.13,6.58-17.59,5.9
			c-0.34-0.57-4.42-7.15-9.08-14.41l-8.4-13.39l-1.13-19.06c-0.91-14.98-0.79-20.65,0.34-25.98c0.79-3.86,1.82-7.15,2.16-7.37
			c0.34-0.23,7.49-1.36,15.88-2.38l15.2-1.82l14.3,8.51l14.3,8.51l11-11.46l11.01-11.46l0.79-7.49c0.57-5.9,1.48-8.4,4.2-11.8
			c1.82-2.38,3.18-4.42,2.95-4.65c-0.23-0.23-14.18-1.36-30.97-2.61l-30.52-2.27l-15.2-15.32l-15.2-15.43l-8.96-2.5
			c-8.4-2.38-9.87-3.29-24.17-15.43l-15.2-12.82l-14.64,5.56l-14.64,5.45l-4.31-2.38c-3.74-2.16-5.22-4.2-9.53-13.39l-5.11-10.89
			l5.22-8.17c2.95-4.54,4.99-8.62,4.65-9.08c-0.23-0.57-10.21-9.3-22.12-19.52l-21.56-18.49l-13.16-3.63
			c-12.71-3.63-13.73-3.63-29.16-3.18l-16.11,0.68l-32.68-12.59l-32.79-12.59l-27.91,8.62c-25.64,7.94-29.73,9.53-48.45,19.29
			l-20.42,10.67l-42.77-1.82c-23.6-1.02-44.02-1.59-45.5-1.13c-1.36,0.34-7.71,5.9-14.18,12.25c-8.85,8.85-13.62,14.86-19.97,25.19
			l-8.4,13.5l-27,11.8l-27.12,11.91l-9.64-0.11c-8.51-0.11-11.69,0.57-26.89,5.33c-9.53,3.06-17.59,5.79-18.04,6.13
			c-0.34,0.34,0.23,3.63,1.13,7.15c1.25,4.88,1.59,10.1,1.13,20.31c-0.57,12.93-1.02,14.86-6.92,32.11
			c-8.96,26.21-7.26,24.39-25.19,27.57l-14.98,2.61l-8.51,9.3c-5.9,6.58-9.53,11.91-12.37,18.04c-4.2,9.3-4.2,9.3-10.1,4.88
			c-1.93-1.48-2.84-1.48-7.26,0c-5.79,2.04-5.67,2.16-11.35-7.72l-4.2-7.26l-8.17-0.34l-8.17-0.34l-3.52-11.12
			c-2.84-9.42-3.4-12.93-3.4-23.15v-12.14l-8.06-4.08l-8.06-4.08l-3.63,3.52c-3.4,3.29-4.54,3.63-20.54,5.79
			c-9.42,1.25-17.81,2.27-18.83,2.27c-1.36,0-4.08-5.45-9.98-20.08l-8.06-20.2v-12.71v-12.71l-3.74-1.02
			c-1.93-0.57-14.3-3.52-27.46-6.47c-13.05-3.06-24.05-5.67-24.28-5.79c-0.23-0.23,1.13-2.27,3.06-4.65
			c2.72-3.52,4.31-7.94,8.06-23.71c2.61-10.55,4.65-20.42,4.65-21.9c0-2.95-4.65-21.9-8.51-34.72l-2.84-9.08l-18.27-8.4
			c-16.91-7.83-18.61-8.85-22.92-14.41l-4.54-5.9l-15.43-2.95l-15.43-2.95l-7.6-7.94l-7.6-7.94l-14.52,1.7
			c-18.49,2.16-17.81,2.16-19.51-1.02c-1.02-1.7-5.11-4.31-11.46-7.26l-9.87-4.54l-0.79-5.45c-0.45-3.06-2.04-11.12-3.63-17.93
			l-2.72-12.37l3.52-5.56l3.52-5.45l8.74,0.68l8.85,0.79l1.25-3.29c1.13-3.18,4.76-28.02,4.76-33.13c0-1.7-0.68-2.5-2.27-2.5
			c-2.61,0-7.94-2.27-7.94-3.52c0-1.02,5.22-2.72,13.84-4.43c6.01-1.13,6.58-1.59,7.49-4.88c0.79-3.06,1.48-3.63,4.88-3.97
			c2.16-0.23,4.99-1.47,6.47-2.84c2.27-2.16,2.5-3.06,1.81-8.51c-0.68-5.56-0.45-6.35,2.38-9.3c2.5-2.61,3.74-3.06,7.26-2.61
			c3.63,0.45,4.65,0.11,6.58-2.38c1.59-1.93,5.79-4.2,12.59-6.58l10.21-3.63l19.86,7.72l19.86,7.72l8.62-5.22
			c5.79-3.63,8.62-6.13,8.85-7.83c0.23-2.04,1.02-2.5,3.97-2.27l3.63,0.34l-3.52-10.55c-3.06-9.08-4.31-11.12-8.96-15.2
			c-4.31-3.97-5.45-5.79-6.01-9.87l-0.79-4.88l-6.92-1.02l-6.92-1.02l0.23-8.51c0.23-9.08,0.11-8.85,7.94-13.96
			c2.95-1.82,4.31-3.86,5.45-8.06c1.82-6.35,2.61-5.22-8.28-13.05l-4.54-3.4l-2.72,4.54c-1.59,2.38-3.06,4.42-3.4,4.42
			c-0.34,0-1.7-0.91-3.18-2.04l-2.61-2.04l3.63-7.83c3.18-7.15,3.52-8.62,2.95-15.32c-0.68-6.58-0.34-7.94,2.38-13.05l3.06-5.67
			l6.24,0.34c6.13,0.34,6.58,0.11,24.96-11.23c10.33-6.35,19.74-12.48,21.1-13.62c2.61-2.5,3.86-1.82,3.86,2.04
			c0,3.18-0.57,3.18,13.05,0.34c12.71-2.61,11.12-1.82,22.46-10.55c6.58-5.11,9.64-8.4,12.37-13.39c2.04-3.74,4.31-6.69,4.99-6.69
			c0.79,0,3.74,1.02,6.69,2.27c7.83,3.4,8.17,3.18,7.6-3.86l-0.45-6.13l6.58-1.36c19.17-3.86,17.59-3.18,16.91-7.26
			c-0.68-3.52-0.57-3.63,5.67-5.79c4.08-1.36,7.6-3.52,9.76-6.01l3.4-3.74l7.94,1.25c7.15,1.02,9.08,0.91,16.68-1.25
			c7.94-2.16,9.53-2.27,18.04-1.13c5.11,0.68,12.14,2.27,15.77,3.52c3.52,1.25,6.69,2.27,6.92,2.27c0.11,0,0.34-3.74,0.34-8.28
			c0-7.6,0.23-8.51,2.61-9.53c2.27-1.13,3.63-0.11,14.52,11.35l12.03,12.71l16.34-3.86c8.96-2.16,18.49-5.11,21.22-6.58l4.88-2.72
			l15.54,5.9c14.98,5.67,16.22,6.47,33.7,19.86l18.04,13.96l8.62-0.68c7.38-0.57,9.42-0.23,15.88,2.27
			c10.55,4.2,10.1,4.31,12.59-2.04c1.25-3.06,2.95-6.24,3.86-6.92c0.91-0.68,1.7-3.74,1.93-7.26l0.34-6.13l7.94-1.59
			c5.33-1.02,8.85-2.5,10.89-4.31c3.18-3.06,4.65-3.29,7.72-1.36c4.2,2.5,8.62-0.79,14.3-10.44c4.2-7.37,5.67-8.96,8.17-9.3
			c2.95-0.34,3.29-0.91,5.22-9.42c1.25-5.79,1.82-12.59,1.7-18.72l-0.34-9.64l-9.87-13.39c-8.17-11.01-10.1-14.41-11.12-19.86
			c-0.79-3.52-2.27-10.55-3.4-15.54c-1.13-4.99-1.93-9.19-1.7-9.42c0.23-0.23,4.54,1.47,9.64,3.63c6.35,2.84,10.89,4.08,14.64,4.08
			h5.56l1.36-9.53c0.79-5.33,1.82-10.1,2.16-10.55c0.34-0.57,3.06-2.72,6.13-4.88c2.95-2.04,5.33-4.31,5.33-4.99
			s-1.02-5.11-2.27-9.76s-2.27-8.51-2.27-8.62c0,0,3.18-1.02,6.92-2.16c6.13-1.93,7.49-2.95,11.46-8.17
			c2.5-3.29,4.77-6.01,4.99-6.01c0.23,0,3.86,1.25,7.94,2.84l7.6,2.84l2.61-2.38c1.36-1.25,3.06-4.65,3.74-7.37
			c1.36-5.33,2.61-5.9,7.38-3.63l2.95,1.25l-0.79,13.27c-0.68,12.82-0.57,13.27,1.93,15.09c2.16,1.59,3.06,1.59,7.03,0.11
			c6.13-2.16,5.79-2.27,8.74,2.95l2.5,4.42l5.9-2.27c3.29-1.36,6.47-2.61,7.15-2.95c0.68-0.23,3.06,0.68,5.33,1.93
			c3.97,2.38,4.31,2.38,8.96,0.68l4.88-1.82l16.34,8.28l16.22,8.4l15.54-5.9l15.43-5.9l3.86-11.01c3.74-10.78,3.97-11.12,10.21-15.2
			c5.79-3.86,14.3-7.03,19.06-7.03c1.02,0,2.84,0.91,4.08,1.93c2.04,1.93,2.16,1.93,3.29-0.11c1.02-1.82,1.47-1.7,4.54,2.04
			l3.29,4.08l6.69-4.54c7.49-5.11,8.28-5.22,13.96-2.84c2.27,0.91,4.65,1.7,5.33,1.7s1.13-3.4,1.13-8.62
			c0-7.94,0.34-9.08,4.54-16.34c4.54-7.72,4.65-7.83,7.94-6.58c1.93,0.57,3.74,1.59,4.08,2.16c0.34,0.57-0.68,3.74-2.16,7.03
			l-2.72,6.01l3.06,6.24l3.18,6.24l19.74,4.31c10.78,2.38,24.05,5.33,29.39,6.58l9.76,2.16l1.47,8.51c0.79,4.65,2.04,8.4,2.72,8.4
			c0.68-0.11,3.06-1.59,5.22-3.52l3.97-3.4l0.57,6.92l0.57,6.92l4.99-6.35c4.42-5.56,5.56-6.35,8.51-6.01
			c2.84,0.23,3.52,0.79,3.29,2.95c-0.34,2.84,1.02,3.29,3.06,0.79c2.04-2.5,2.95-2.16,5.79,2.38c2.04,3.4,2.61,3.86,3.52,2.27
			c0.91-1.59,1.48-1.47,4.99,1.25c3.86,2.84,4.08,2.95,7.83,1.13c3.63-1.7,4.2-1.7,14.41,1.7c9.64,3.18,11.23,4.08,18.49,11.12
			c6.13,5.9,9.19,7.94,13.5,9.08c3.97,1.13,7.38,3.29,12.14,7.72c5.79,5.33,6.69,6.69,6.69,10.32c0,4.08,0.11,4.2,6.47,5.79
			l6.35,1.7l7.26,11.57c6.69,10.55,7.49,11.57,9.64,10.44c1.25-0.68,2.38-1.02,2.5-0.79c0.23,0.23,1.82,5.22,3.74,11.23
			c3.18,10.32,3.29,11.12,1.7,15.2c-1.7,4.08-1.59,4.31,1.02,6.35c3.52,2.72,3.74,2.72,5.11-0.79c0.91-2.61,2.04-1.13,14.52,19.4
			c13.05,21.67,13.5,22.24,16.57,21.56s3.29-0.45,4.88,5.33c3.97,13.96,4.31,15.66,3.06,17.81c-1.59,3.18-1.59,3.29,2.61,3.74
			c3.52,0.34,3.63,0.57,3.97,5.9c0.34,4.65,0.11,5.45-1.36,4.77c-1.02-0.34-2.61-1.02-3.63-1.36c-1.02-0.45,0.57,1.47,3.52,4.31
			l5.45,5.11l-9.42,5.33l-9.42,5.45l-10.67-2.16c-5.79-1.25-10.21-1.82-9.76-1.36s8.06,4.77,16.79,9.53
			c8.74,4.88,17.13,9.53,18.61,10.44l2.61,1.7l-8.85,9.08c-10.1,10.21-20.42,17.02-27.12,17.93l-4.54,0.68l4.54,1.13
			c4.08,1.13,6.35,0.68,20.08-3.52c18.04-5.45,17.81-6.58,1.93,11.57l-9.87,11.12l-8.17,22.69c-4.42,12.48-8.74,23.37-9.64,24.28
			c-0.79,0.79-6.35,4.43-12.25,7.94l-10.78,6.47l5.45,8.96c3.06,4.99,8.17,11.46,11.46,14.52c4.65,4.31,5.9,6.35,6.35,9.98
			c0.68,4.54,0.79,4.65,4.2,3.86c6.92-1.59,7.83-1.25,10.55,3.4c1.48,2.5,2.5,5.79,2.38,7.26c-0.34,2.61,0.23,2.95,9.19,4.54
			c8.28,1.59,9.87,2.27,12.48,5.56c3.97,4.65,7.94,4.88,10.55,0.57l1.93-3.18l3.52,7.83c2.5,5.67,3.06,8.06,2.16,8.74
			c-0.68,0.45-6.24,1.13-12.25,1.59c-10.55,0.79-11.12,0.91-19.63,6.35l-8.85,5.67l-11.57-7.83c-6.47-4.2-13.5-8.85-15.88-10.21
			l-4.08-2.61l-6.13,2.72c-5.79,2.61-6.13,2.95-8.74,10.21c-2.61,7.49-2.72,7.6-11.01,12.14c-5.22,2.95-10.44,7.03-13.96,11.01
			c-4.99,5.56-5.56,6.81-4.99,9.87c0.57,2.72,6.47,13.73,8.96,16.34c0.11,0.23,2.95-0.11,6.24-0.79c5.56-1.25,6.58-1.13,13.28,1.82
			c6.47,2.72,7.83,3.86,12.14,10.32c4.42,6.47,6.13,7.94,15.54,13.16c9.98,5.56,11.01,6.35,19.06,17.36l8.51,11.46l8.51,2.38
			c4.65,1.25,8.51,2.16,8.51,2.04c0.11-0.11,2.04-4.2,4.31-8.96l3.97-8.74l-10.67-14.18c-5.9-7.83-10.67-14.52-10.67-14.75
			c0-0.34,2.04-1.7,4.54-3.06c4.2-2.38,4.54-2.95,3.97-6.13c-1.36-6.24-1.7-6.81-6.81-9.98c-2.84-1.82-5.11-3.52-5.11-3.74
			c0-2.27,7.6,1.82,28.14,14.75l23.94,15.32l12.25,2.38l12.25,2.5l5.67,8.17c5.22,7.38,6.69,8.51,16.34,13.73
			c7.94,4.2,14.07,8.74,23.83,17.7l13.16,12.03l7.03-3.4c6.69-3.29,7.26-3.4,15.88-2.38l8.85,1.02l-0.34,9.42l-0.34,9.3h8.85
			c6.58,0,9.64,0.57,11.8,2.04c8.06,5.45,12.71,10.44,18.15,19.17l5.9,9.64l6.01-6.01l6.13-6.01v3.63c0,3.06,1.59,5.56,7.94,12.82
			l7.94,8.96v12.93c0,11.01-0.45,13.96-2.84,20.42c-1.59,4.2-2.84,8.17-2.84,9.08c0,0.79,4.54,5.56,9.98,10.55l9.98,9.19l11.91-4.08
			l11.91-4.08l3.06,2.27c5.22,3.86,17.93,32.34,24.62,55.48c5.79,19.74,6.24,20.65,11.46,26.1l5.45,5.67l-1.25,12.14
			c-1.13,10.78-1.02,12.48,0.68,15.09c1.02,1.59,1.47,2.84,1.02,2.84c-0.45,0-15.2-6.13-32.68-13.5l-31.77-13.62l-11.23,0.68
			l-11.12,0.68l-3.86,6.01c-3.29,5.22-3.86,6.92-3.86,13.16c0,4.77-0.91,9.98-2.95,15.66l-2.95,8.51l-16,8.96l-16.11,8.85
			l-19.52,3.63c-10.67,1.93-19.74,3.74-20.08,4.08c-0.34,0.34-2.38,10.55-4.65,22.69c-3.74,20.65-4.54,23.15-11.35,38.58
			c-5.67,12.59-7.71,18.95-9.19,27.23c-1.02,5.9-2.16,11.35-2.5,11.91c-4.08,6.81-17.7,24.39-19.29,24.85
			c-1.02,0.23-7.49,1.7-14.41,2.95c-11.69,2.38-13.05,2.95-22.12,9.19c-5.33,3.74-10.44,6.58-11.35,6.58
			C12873.61,2730.9,12858.98,2728.75,12841.96,2726.14z"/>
	</g>
	<g class="st33">
		<rect x="1157.74" y="684.98" class="st0" width="101.78" height="16.3"/>
		<g>
			<path class="st34" d="M1247.95,695l-0.72,0.03c0.45,0.74-0.6,3.4-2.76,3.04c0.28,1.44-0.95,2.33-2.35,1.98
				c-1.2-0.31-1.91-0.43-4.02-0.04c-2.62,0.48-5.63,1.29-8.72-0.52c-0.27-0.16-0.58,0-0.66,0.18c-0.15,0.34-0.04,1.34-0.88,1.36
				h-67.83c-1.12,0-2.03-1.65-2.01-6.87c0.02-5.45,0.08-7.58,2.33-7.6c2.21-0.02,67.5,0,67.5,0c0.71,0.02,0.81,0.49,0.93,0.79
				c0.06,0.18,0.33,0.25,0.51,0.17c0.28-0.13,3.08-1.33,5.49-1.59c2.24-0.24,3.11-0.91,4.62-0.69c1.78,0.28,7.56,0.08,9.29,0.06
				c1.69-0.02,4.4,0.53,8,0.44c3.43-0.08,3.45,3.9,0.36,3.72c-2.44-0.14-2.53,0.16-3.37,0.05c-1.48-0.18-3.12-0.01-4.26,0.07
				c-0.52,0.04-1.1-0.12-2.64,0.04c0.85,0.2,0.88,0.44,2.09,0.99C1250.61,691.5,1249.58,694.89,1247.95,695z"/>
			<path class="st35" d="M1227.17,693.59c-0.06,2.17,0.36,5.93,0.48,6.27c0.11,0.32-0.12,0.53-0.6,0.48
				c-0.34-0.03-66.71-0.02-66.71-0.02c-0.74,0-1.65-0.77-1.65-6.55c0.04-5.99,0.29-6.75,2.05-6.75l66.87,0.06
				c0.13,0.03,0.23,0.1,0.3,0.24C1228.08,687.65,1227.32,688.1,1227.17,693.59z"/>
			<path class="st35" d="M1232.28,694.17c-0.1,0.1-0.13,0.26-0.09,0.34c0.2,0.38,0.64,0.09,0.99,0.06c0.28-0.02,1.81-0.28,2.37,0.08
				c0.56,0.36,1.67,1.07,2.05,2.59c0.06,0.28,0.54,1.13,1.27,1.37c0.51,0.17,0.43,0.69-0.01,0.73c-1.18,0.12-1.54,0.61-5.2,0.59
				c-2.91-0.16-5.65-0.73-5.83-4.6c-0.06-2.13,0.03-5.12,0.34-6.19c0.32-1.09,1.21-1.09,1.99-1.49c3.25-1.4,5.42-1.31,7.21-1.71
				c0.71-0.15,1.25-0.43,2.15,0.2c1.93,1.35,4.24,1.81,4.81,2.21c0.39,0.25,0.5,0.38,0.56,0.52c0.1,0.23,0.5,0.26,0.85,0.54
				c0.22,0.16,0.32,0.24,0.56,0.34c-0.32,0.42-0.61-0.05-1.06,0.87c-0.1,0.2,0.01,0.56,0.07,0.72c0.21,0.37,1,0.43,1.32,0.49
				c0.25,0.04,0.55,0.09,0.82,0.15c0.75,0.14,0.97-0.62,0.99-0.35c0.14,1.37-1.7,1.08-2.3,0.98c-0.6-0.05-1.09-0.35-1.7-0.5
				c-0.26-0.2-1.64-0.24-1.62-1.22c-0.02-0.16,0.01-0.51-0.42-0.35c-0.33,0.12-1.89,0.1-2.12-0.34c-0.11-0.21-0.21-0.34-0.43-0.44
				c-0.22-0.1-0.35,0.03-0.32,0.28c0.04,0.32,0.02,0.76-0.44,0.87c-0.41,0.1-0.6,0.11-0.89-0.06c-0.3-0.16-0.86-0.52-1.12-0.5
				c-0.21,0.07-0.38,0.23,0.12,0.46c0.44,0.21,0.98,0.94,0.22,1.77c-1.12,1.22-0.76,1.31-4.74,1.45
				C1232.49,694.04,1232.39,694.07,1232.28,694.17z"/>
			<path class="st35" d="M1238.8,694.24c-0.52-0.66-0.92-0.88-0.43-1.54c0.06-0.12,0.24-0.12,0.73-0.01
				c0.26,0.06,1.14,1.12,0.37,1.82C1239.29,694.61,1239.09,694.68,1238.8,694.24z"/>
			<path class="st35" d="M1237.96,696.32c-0.32,0.1-0.82-1.37-0.8-1.47c0.04-0.14,0.05-0.29,0.7-0.34c0.29,0,0.83,0.57,0.76,1.19
				C1238.58,696.12,1238.03,696.3,1237.96,696.32z"/>
			<path class="st35" d="M1240.59,692.61c-0.28-0.31-0.91-0.89-0.73-1.2c0.21-0.37,0.46-0.55,1.11-0.32
				c0.44,0.15,1.26,0.86,0.38,1.73C1241.07,692.94,1240.97,693.03,1240.59,692.61z"/>
			<path class="st35" d="M1243.9,698.04c0.46,1.9-1.63,1.76-2.48,1.26c-1.35-0.8-2.53-1.01-2.99-1.55
				c-0.26-0.31-0.65-1.09-0.26-1.12c0.34-0.04,0.65-0.32,0.83-0.48c0.07-0.07-0.04-0.59,0.08-0.58c0.08,0.02-0.06,0.56,1.25,1.21
				c0.56,0.26,1.78,0.75,2.21,0.84c0.34,0.07,0.67,0.23,1.25,0.31C1243.88,697.94,1243.89,698,1243.9,698.04z"/>
			<path class="st35" d="M1246.44,695.04c-1.43-0.08-2.01,0.01-2.36,0.02c-1.77,0.18-2.56-0.5-2.93-1
				c-0.36-0.34-0.46-0.63-0.74-0.85c-0.23-0.18-0.47-0.57-0.33,0.03c0.08,0.29,0.32,0.48,0.12,0.97c-0.18,0.3-0.22,0.48-0.77,0.8
				c-0.06,0.02-0.13,0.03-0.08,0.06c0.16,0.13,0.32,1.06,1.81,1.45c1.97,0.51,2.84,0.99,3.25,1.07c0.07,0.01,0.18,0.01,0.27,0
				c0.61-0.03,0.83-0.13,1.02-0.29c0.19-0.15,1.2-1.01,0.94-2.06C1246.59,695.13,1246.53,695.04,1246.44,695.04z"/>
			<path class="st35" d="M1249.1,691.72c0.14,0,0.38,2.13-1.1,2.67c-0.73,0.27-1.12,0.08-1.85,0.1c-1.25-0.06-2.25,0.03-2.76,0.02
				c-0.74-0.01-1.33-0.17-1.73-0.6c-0.2-0.22-0.65-0.56-0.35-0.68c0.3-0.12,0.49-0.17,0.75-0.67c0.34-0.64-0.11-1.07,0.29-0.91
				c0.35,0.15,0.37,0.16,0.74,0.42c1.41,1,5.89,2.07,5.79-0.18C1248.9,691.74,1249.04,691.62,1249.1,691.72z"/>
			<path class="st35" d="M1246.83,690.17c0.26-0.02,0.47,0.15,0.63,0.22c0.28,0.12,1.28,0.3,0.82,0.88
				c-0.46,0.58-1.83,0.08-2.31-0.08c-0.2-0.08-0.28-0.22-0.28-0.4C1245.68,690.61,1245.8,690.17,1246.83,690.17z"/>
			<path class="st35" d="M1254.35,686.27c-1.11,0.02-3.66-0.56-5-0.3c-1.65-0.3-4.51,0.02-5.45-0.06c-0.8,0-2.61-0.18-3.86,0
				c0.34,0.14,1.65,1.13,3.68,1.65c0.71,0.16,1.27,0.48,1.83,1.25c1.42,0.23,3.48,0.33,3.58,0.13c0.05-0.1,0.07-0.21,0.33-0.15
				c0.23,0.05,0.11,0.11,0.54,0.13c2.23,0.06,3.42,0.02,3.42,0.02c0.49-0.03,0.33-0.21,0.51-0.26c0.15-0.04,0.04,0.12,0.56,0.18
				c0.27,0.03,0.98,0.13,2.96,0.1c1.75,0.04,2.15-2.61-0.81-2.72C1254.63,686.15,1254.65,686.33,1254.35,686.27z"/>
		</g>
	</g>
</g>
<g id="Layer_2">
</g>
</svg>
