<?xml version="1.0" encoding="utf-8"?>
<!-- Generator: Adobe Illustrator 24.0.3, SVG Export Plug-In . SVG Version: 6.00 Build 0)  -->
<svg version="1.1" id="Layer_1" xmlns="http://www.w3.org/2000/svg" xmlns:xlink="http://www.w3.org/1999/xlink" x="0px" y="0px"
	 viewBox="0 0 1366 768" style="enable-background:new 0 0 1366 768;" xml:space="preserve">
<style type="text/css">
	.st0{fill:none;}
	.st1{font-family:'ArialMT';}
	.st2{font-size:12px;}
	.st3{fill:#FFFFFF;}
	.st4{font-family:'CourierNewPSMT';}
	.st5{font-size:22px;}
	.st6{fill:#5382A1;}
	.st7{fill:#E76F00;}
	.st8{font-size:20px;}
	.st9{font-family:'CourierNewPS-BoldMT';}
	.st10{font-size:30px;}
	.st11{font-size:15px;}
	.st12{font-size:16px;}
	.st13{font-size:17px;}
	.st14{fill:#001D26;}
	.st15{fill:#00C8FF;}
	.st16{fill-rule:evenodd;clip-rule:evenodd;fill:url(#SVGID_1_);}
	.st17{fill-rule:evenodd;clip-rule:evenodd;fill:#FF408C;}
	.st18{fill:#261300;}
	.st19{fill:#FF7C00;}
	.st20{fill:#3E5BA9;}
	.st21{fill:#9F1D20;}
	.st22{fill:#E44D26;}
	.st23{fill:#F16529;}
	.st24{fill:#EBEBEB;}
	.st25{fill:#264DE4;}
	.st26{fill:#2965F1;}
	.st27{fill:url(#rect3050_1_);}
	.st28{fill-rule:evenodd;clip-rule:evenodd;fill:url(#Shape_1_);}
	.st29{fill-rule:evenodd;clip-rule:evenodd;fill:url(#SVGID_2_);}
	.st30{fill-rule:evenodd;clip-rule:evenodd;fill:url(#SVGID_3_);}
	.st31{fill-rule:evenodd;clip-rule:evenodd;fill:url(#SVGID_4_);}
	.st32{fill-rule:evenodd;clip-rule:evenodd;}
	.st33{fill-rule:evenodd;clip-rule:evenodd;fill:#FFFFFF;}
	.st34{fill:#61DAFB;}
	.st35{fill:#D4B830;}
	.st36{opacity:0.986;fill:#EBEBEB;fill-opacity:0;enable-background:new    ;}
	.st37{opacity:0.986;fill:#EBEBEB;fill-opacity:0.9216;enable-background:new    ;}
	.st38{fill:#FDD83C;}
	.st39{fill:#666666;}
	.st40{opacity:0.47;}
	.st41{fill:none;stroke:#FFFFFF;stroke-miterlimit:10;}
</style>
<g>
	<rect x="0.5" y="0.5" width="1365" height="767"/>
	<path d="M1365,1v766H1V1H1365 M1366,0H0v768h1366V0L1366,0z"/>
</g>
<path id="SVGID_x5F_1_x5F_" class="st0" d="M-121.5,364.5h541"/>
<text transform="matrix(1 0 0 1 65.0189 364.5)" class="st1 st2"> </text>
<text transform="matrix(1 0 0 1 68.3529 364.5)" class="st3 st4 st5">G</text>
<text transform="matrix(1 0 0 1 81.555 364.5)" class="st3 st4 st5">r</text>
<text transform="matrix(1 0 0 1 94.7572 364.5)" class="st3 st4 st5">a</text>
<text transform="matrix(1 0 0 1 107.9593 364.5)" class="st3 st4 st5">p</text>
<text transform="matrix(1 0 0 1 121.1615 364.5)" class="st3 st4 st5">h</text>
<text transform="matrix(1 0 0 1 134.3636 364.5)" class="st3 st4 st5">i</text>
<text transform="matrix(1 0 0 1 147.5658 364.5)" class="st3 st4 st5">c</text>
<text transform="matrix(1 0 0 1 160.7679 364.5)" class="st3 st4 st5"> </text>
<text transform="matrix(1 0 0 1 173.9701 364.5)" class="st3 st4 st5">D</text>
<text transform="matrix(1 0 0 1 187.1722 364.5)" class="st3 st4 st5">e</text>
<text transform="matrix(1 0 0 1 200.3744 364.5)" class="st3 st4 st5">s</text>
<text transform="matrix(1 0 0 1 213.5765 364.5)" class="st3 st4 st5">i</text>
<text transform="matrix(1 0 0 1 226.7787 364.5)" class="st3 st4 st5">g</text>
<text transform="matrix(1 0 0 1 239.9808 364.5)" class="st3 st4 st5">n</text>
<text transform="matrix(1 0 0 1 253.183 364.5)" class="st1 st2"> </text>
<text class="st1 st2"> </text>
<g>
	<path class="st6" d="M1002.4,221.8c0,0-1.7,1,1.2,1.3c3.5,0.4,5.2,0.3,9-0.4c0,0,1,0.6,2.4,1.2
		C1006.5,227.6,995.7,223.7,1002.4,221.8"/>
	<path class="st6" d="M1001.3,217.1c0,0-1.9,1.4,1,1.7c3.7,0.4,6.6,0.4,11.7-0.6c0,0,0.7,0.7,1.8,1.1
		C1005.5,222.3,993.9,219.5,1001.3,217.1"/>
	<path class="st7" d="M1010.2,208.9c2.1,2.4-0.5,4.6-0.5,4.6s5.3-2.8,2.9-6.2c-2.3-3.2-4.1-4.8,5.5-10.4
		C1018,197,1003,200.7,1010.2,208.9"/>
	<path class="st6" d="M1021.5,225.4c0,0,1.2,1-1.4,1.8c-4.9,1.5-20.6,1.9-24.9,0.1c-1.6-0.7,1.4-1.6,2.3-1.8c1-0.2,1.5-0.2,1.5-0.2
		c-1.7-1.2-11.2,2.4-4.8,3.4C1011.6,231.5,1026,227.4,1021.5,225.4"/>
	<path class="st6" d="M1003.2,212.1c0,0-8,1.9-2.8,2.6c2.2,0.3,6.5,0.2,10.5-0.1c3.3-0.3,6.6-0.9,6.6-0.9s-1.2,0.5-2,1.1
		c-8.1,2.1-23.7,1.1-19.2-1C1000.1,211.9,1003.2,212.1,1003.2,212.1"/>
	<path class="st6" d="M1017.4,220.1c8.2-4.3,4.4-8.4,1.8-7.8c-0.7,0.1-0.9,0.2-0.9,0.2s0.2-0.4,0.7-0.5c5.2-1.8,9.3,5.4-1.7,8.3
		C1017.3,220.3,1017.4,220.2,1017.4,220.1"/>
	<path class="st7" d="M1012.5,188c0,0,4.5,4.5-4.3,11.5c-7.1,5.6-1.6,8.8,0,12.4c-4.1-3.7-7.2-7-5.1-10.1
		C1006,197.4,1014.3,195.2,1012.5,188"/>
	<path class="st6" d="M1004,231.6c7.9,0.5,20-0.3,20.2-4c0,0-0.5,1.4-6.5,2.5c-6.7,1.3-15,1.1-19.9,0.3
		C997.8,230.4,998.8,231.3,1004,231.6"/>
</g>
<path id="SVGID_x5F_2_x5F_" class="st0" d="M679.5,740.3H2045"/>
<text class="st1 st2"> </text>
<path id="SVGID_x5F_3_x5F_" class="st0" d="M-338.5,289.3H1027"/>
<text transform="matrix(1 0 0 1 234.655 289.32)" class="st1 st2"> </text>
<text transform="matrix(1 0 0 1 237.989 289.32)" class="st3 st4 st8">O</text>
<text transform="matrix(1 0 0 1 249.991 289.32)" class="st3 st4 st8">b</text>
<text transform="matrix(1 0 0 1 261.9929 289.32)" class="st3 st4 st8">j</text>
<text transform="matrix(1 0 0 1 273.9949 289.32)" class="st3 st4 st8">e</text>
<text transform="matrix(1 0 0 1 285.9968 289.32)" class="st3 st4 st8">c</text>
<text transform="matrix(1 0 0 1 297.9988 289.32)" class="st3 st4 st8">t</text>
<text transform="matrix(1 0 0 1 310.0007 289.32)" class="st3 st4 st8">-</text>
<text transform="matrix(1 0 0 1 322.0027 289.32)" class="st3 st4 st8">O</text>
<text transform="matrix(1 0 0 1 334.0046 289.32)" class="st3 st4 st8">r</text>
<text transform="matrix(1 0 0 1 346.0065 289.32)" class="st3 st4 st8">i</text>
<text transform="matrix(1 0 0 1 358.0085 289.32)" class="st3 st4 st8">e</text>
<text transform="matrix(1 0 0 1 370.0104 289.32)" class="st3 st4 st8">n</text>
<text transform="matrix(1 0 0 1 382.0124 289.32)" class="st3 st4 st8">t</text>
<text transform="matrix(1 0 0 1 394.0143 289.32)" class="st3 st4 st8">e</text>
<text transform="matrix(1 0 0 1 406.0163 289.32)" class="st3 st4 st8">d</text>
<text transform="matrix(1 0 0 1 418.0182 289.32)" class="st3 st4 st8"> </text>
<text transform="matrix(1 0 0 1 430.0202 289.32)" class="st3 st4 st8">D</text>
<text transform="matrix(1 0 0 1 442.0222 289.32)" class="st3 st4 st8">e</text>
<text transform="matrix(1 0 0 1 454.0241 289.32)" class="st3 st4 st8">s</text>
<text transform="matrix(1 0 0 1 466.0261 289.32)" class="st3 st4 st8">i</text>
<text transform="matrix(1 0 0 1 478.028 289.32)" class="st3 st4 st8">g</text>
<text transform="matrix(1 0 0 1 490.03 289.32)" class="st3 st4 st8">n</text>
<text transform="matrix(1 0 0 1 502.032 289.32)" class="st1 st2"> </text>
<text class="st1 st2"> </text>
<path id="SVGID_x5F_4_x5F_" class="st0" d="M-520.5,452.3H950"/>
<text transform="matrix(1 0 0 1 96.7277 452.32)" class="st1 st2"> </text>
<text transform="matrix(1 0 0 1 100.0616 452.32)" class="st3 st9 st10">K</text>
<text transform="matrix(1 0 0 1 118.0646 452.32)" class="st3 st9 st10">h</text>
<text transform="matrix(1 0 0 1 136.0675 452.32)" class="st3 st9 st10">o</text>
<text transform="matrix(1 0 0 1 154.0704 452.32)" class="st3 st9 st10">u</text>
<text transform="matrix(1 0 0 1 172.0734 452.32)" class="st3 st9 st10">r</text>
<text transform="matrix(1 0 0 1 190.0762 452.32)" class="st3 st9 st10">y</text>
<text transform="matrix(1 0 0 1 208.0792 452.32)" class="st3 st9 st10"> </text>
<text transform="matrix(1 0 0 1 226.0822 452.32)" class="st3 st9 st10">C</text>
<text transform="matrix(1 0 0 1 244.0851 452.32)" class="st3 st9 st10">o</text>
<text transform="matrix(1 0 0 1 262.088 452.32)" class="st3 st9 st10">l</text>
<text transform="matrix(1 0 0 1 280.0909 452.32)" class="st3 st9 st10">l</text>
<text transform="matrix(1 0 0 1 298.0939 452.32)" class="st3 st9 st10">e</text>
<text transform="matrix(1 0 0 1 316.0968 452.32)" class="st3 st9 st10">g</text>
<text transform="matrix(1 0 0 1 334.0997 452.32)" class="st3 st9 st10">e</text>
<text transform="matrix(1 0 0 1 352.1027 452.32)" class="st3 st9 st10"> </text>
<text transform="matrix(1 0 0 1 370.1056 452.32)" class="st3 st9 st10">o</text>
<text transform="matrix(1 0 0 1 388.1085 452.32)" class="st3 st9 st10">f</text>
<text transform="matrix(1 0 0 1 406.1115 452.32)" class="st3 st9 st10"> </text>
<text transform="matrix(1 0 0 1 424.1144 452.32)" class="st3 st9 st10">C</text>
<text transform="matrix(1 0 0 1 442.1173 452.32)" class="st3 st9 st10">o</text>
<text transform="matrix(1 0 0 1 460.1202 452.32)" class="st3 st9 st10">m</text>
<text transform="matrix(1 0 0 1 478.1232 452.32)" class="st3 st9 st10">p</text>
<text transform="matrix(1 0 0 1 496.1261 452.32)" class="st3 st9 st10">u</text>
<text transform="matrix(1 0 0 1 514.129 452.32)" class="st3 st9 st10">t</text>
<text transform="matrix(1 0 0 1 532.132 452.32)" class="st3 st9 st10">e</text>
<text transform="matrix(1 0 0 1 550.1349 452.32)" class="st3 st9 st10">r</text>
<text transform="matrix(1 0 0 1 568.1378 452.32)" class="st3 st9 st10"> </text>
<text transform="matrix(1 0 0 1 586.1407 452.32)" class="st3 st9 st10">S</text>
<text transform="matrix(1 0 0 1 604.1437 452.32)" class="st3 st9 st10">c</text>
<text transform="matrix(1 0 0 1 622.1466 452.32)" class="st3 st9 st10">i</text>
<text transform="matrix(1 0 0 1 640.1495 452.32)" class="st3 st9 st10">e</text>
<text transform="matrix(1 0 0 1 658.1525 452.32)" class="st3 st9 st10">n</text>
<text transform="matrix(1 0 0 1 676.1554 452.32)" class="st3 st9 st10">c</text>
<text transform="matrix(1 0 0 1 694.1583 452.32)" class="st3 st9 st10">e</text>
<text transform="matrix(1 0 0 1 712.1613 452.32)" class="st3 st9 st10">s</text>
<text transform="matrix(1 0 0 1 730.1642 452.32)" class="st1 st2"> </text>
<text class="st1 st2"> </text>
<path id="SVGID_x5F_5_x5F_" class="st0" d="M-349.5,494.3H1016"/>
<text transform="matrix(1 0 0 1 223.655 494.32)" class="st1 st2"> </text>
<text transform="matrix(1 0 0 1 226.989 494.32)" class="st3 st4 st8">W</text>
<text transform="matrix(1 0 0 1 238.991 494.32)" class="st3 st4 st8">e</text>
<text transform="matrix(1 0 0 1 250.9929 494.32)" class="st3 st4 st8">b</text>
<text transform="matrix(1 0 0 1 262.9949 494.32)" class="st3 st4 st8"> </text>
<text transform="matrix(1 0 0 1 274.9968 494.32)" class="st3 st4 st8">D</text>
<text transform="matrix(1 0 0 1 286.9988 494.32)" class="st3 st4 st8">e</text>
<text transform="matrix(1 0 0 1 299.0007 494.32)" class="st3 st4 st8">v</text>
<text transform="matrix(1 0 0 1 311.0027 494.32)" class="st3 st4 st8">e</text>
<text transform="matrix(1 0 0 1 323.0046 494.32)" class="st3 st4 st8">l</text>
<text transform="matrix(1 0 0 1 335.0065 494.32)" class="st3 st4 st8">o</text>
<text transform="matrix(1 0 0 1 347.0085 494.32)" class="st3 st4 st8">p</text>
<text transform="matrix(1 0 0 1 359.0104 494.32)" class="st3 st4 st8">m</text>
<text transform="matrix(1 0 0 1 371.0124 494.32)" class="st3 st4 st8">e</text>
<text transform="matrix(1 0 0 1 383.0143 494.32)" class="st3 st4 st8">n</text>
<text transform="matrix(1 0 0 1 395.0163 494.32)" class="st3 st4 st8">t</text>
<text transform="matrix(1 0 0 1 407.0182 494.32)" class="st1 st2"> </text>
<text class="st1 st2"> </text>
<path id="SVGID_x5F_6_x5F_" class="st0" d="M40.5,492.3H1406"/>
<text transform="matrix(1 0 0 1 613.655 492.32)" class="st1 st2"> </text>
<text transform="matrix(1 0 0 1 616.989 492.32)" class="st3 st4 st11">A</text>
<text transform="matrix(1 0 0 1 625.9904 492.32)" class="st3 st4 st11">l</text>
<text transform="matrix(1 0 0 1 634.9919 492.32)" class="st3 st4 st11">g</text>
<text transform="matrix(1 0 0 1 643.9933 492.32)" class="st3 st4 st11">o</text>
<text transform="matrix(1 0 0 1 652.9948 492.32)" class="st3 st4 st11">r</text>
<text transform="matrix(1 0 0 1 661.9963 492.32)" class="st3 st4 st11">i</text>
<text transform="matrix(1 0 0 1 670.9977 492.32)" class="st3 st4 st11">t</text>
<text transform="matrix(1 0 0 1 679.9992 492.32)" class="st3 st4 st11">h</text>
<text transform="matrix(1 0 0 1 689.0007 492.32)" class="st3 st4 st11">m</text>
<text transform="matrix(1 0 0 1 698.0022 492.32)" class="st1 st2"> </text>
<text class="st1 st2"> </text>
<path id="SVGID_x5F_7_x5F_" class="st0" d="M-47.5,235.5h541"/>
<text transform="matrix(1 0 0 1 139.0189 235.5)" class="st1 st2"> </text>
<text transform="matrix(1 0 0 1 142.3529 235.5)" class="st3 st4 st12">T</text>
<text transform="matrix(1 0 0 1 151.9544 235.5)" class="st3 st4 st12">y</text>
<text transform="matrix(1 0 0 1 161.556 235.5)" class="st3 st4 st12">p</text>
<text transform="matrix(1 0 0 1 171.1576 235.5)" class="st3 st4 st12">o</text>
<text transform="matrix(1 0 0 1 180.7591 235.5)" class="st3 st4 st12">g</text>
<text transform="matrix(1 0 0 1 190.3607 235.5)" class="st3 st4 st12">r</text>
<text transform="matrix(1 0 0 1 199.9622 235.5)" class="st3 st4 st12">a</text>
<text transform="matrix(1 0 0 1 209.5638 235.5)" class="st3 st4 st12">p</text>
<text transform="matrix(1 0 0 1 219.1654 235.5)" class="st3 st4 st12">h</text>
<text transform="matrix(1 0 0 1 228.7669 235.5)" class="st3 st4 st12">y</text>
<text transform="matrix(1 0 0 1 238.3685 235.5)" class="st1 st2"> </text>
<text class="st1 st2"> </text>
<path id="SVGID_x5F_8_x5F_" class="st0" d="M283.5,131.3H1649"/>
<text transform="matrix(1 0 0 1 856.655 131.32)" class="st1 st2"> </text>
<text transform="matrix(1 0 0 1 859.989 131.32)" class="st3 st4 st13">J</text>
<text transform="matrix(1 0 0 1 870.1906 131.32)" class="st3 st4 st13">a</text>
<text transform="matrix(1 0 0 1 880.3923 131.32)" class="st3 st4 st13">v</text>
<text transform="matrix(1 0 0 1 890.5939 131.32)" class="st3 st4 st13">a</text>
<text transform="matrix(1 0 0 1 900.7956 131.32)" class="st1 st2"> </text>
<text class="st1 st2"> </text>
<path id="SVGID_x5F_9_x5F_" class="st0" d="M298.5,186.3H1664"/>
<text transform="matrix(1 0 0 1 871.655 186.32)" class="st1 st2"> </text>
<text transform="matrix(1 0 0 1 874.989 186.32)" class="st3 st4 st13">D</text>
<text transform="matrix(1 0 0 1 885.1906 186.32)" class="st3 st4 st13">r</text>
<text transform="matrix(1 0 0 1 895.3923 186.32)" class="st3 st4 st13">.</text>
<text transform="matrix(1 0 0 1 905.5939 186.32)" class="st3 st4 st13">R</text>
<text transform="matrix(1 0 0 1 915.7956 186.32)" class="st3 st4 st13">a</text>
<text transform="matrix(1 0 0 1 925.9972 186.32)" class="st3 st4 st13">c</text>
<text transform="matrix(1 0 0 1 936.1989 186.32)" class="st3 st4 st13">k</text>
<text transform="matrix(1 0 0 1 946.4006 186.32)" class="st3 st4 st13">e</text>
<text transform="matrix(1 0 0 1 956.6023 186.32)" class="st3 st4 st13">t</text>
<text transform="matrix(1 0 0 1 966.8038 186.32)" class="st1 st2"> </text>
<text class="st1 st2"> </text>
<path id="SVGID_x5F_10_x5F_" class="st0" d="M612.5,371.3H1978"/>
<text transform="matrix(1 0 0 1 1185.655 371.32)" class="st1 st2"> </text>
<text transform="matrix(1 0 0 1 1188.989 371.32)" class="st3 st4 st11">h</text>
<text transform="matrix(1 0 0 1 1197.9905 371.32)" class="st3 st4 st11">t</text>
<text transform="matrix(1 0 0 1 1206.9919 371.32)" class="st3 st4 st11">m</text>
<text transform="matrix(1 0 0 1 1215.9934 371.32)" class="st3 st4 st11">l</text>
<text transform="matrix(1 0 0 1 1224.9949 371.32)" class="st1 st2"> </text>
<text class="st1 st2"> </text>
<path id="SVGID_x5F_11_x5F_" class="st0" d="M597.5,405.3H1963"/>
<text transform="matrix(1 0 0 1 1170.655 405.32)" class="st1 st2"> </text>
<text transform="matrix(1 0 0 1 1173.989 405.32)" class="st3 st4 st11">c</text>
<text transform="matrix(1 0 0 1 1182.9905 405.32)" class="st3 st4 st11">s</text>
<text transform="matrix(1 0 0 1 1191.9919 405.32)" class="st3 st4 st11">s</text>
<text transform="matrix(1 0 0 1 1200.9934 405.32)" class="st1 st2"> </text>
<text class="st1 st2"> </text>
<path id="SVGID_x5F_12_x5F_" class="st0" d="M631.5,445.3H1997"/>
<text transform="matrix(1 0 0 1 1204.655 445.32)" class="st1 st2"> </text>
<text transform="matrix(1 0 0 1 1207.989 445.32)" class="st3 st4 st11">J</text>
<text transform="matrix(1 0 0 1 1216.9905 445.32)" class="st3 st4 st11">a</text>
<text transform="matrix(1 0 0 1 1225.9919 445.32)" class="st3 st4 st11">v</text>
<text transform="matrix(1 0 0 1 1234.9934 445.32)" class="st3 st4 st11">a</text>
<text transform="matrix(1 0 0 1 1243.9949 445.32)" class="st3 st4 st11">S</text>
<text transform="matrix(1 0 0 1 1252.9963 445.32)" class="st3 st4 st11">c</text>
<text transform="matrix(1 0 0 1 1261.9978 445.32)" class="st3 st4 st11">r</text>
<text transform="matrix(1 0 0 1 1270.9993 445.32)" class="st3 st4 st11">i</text>
<text transform="matrix(1 0 0 1 1280.0007 445.32)" class="st3 st4 st11">p</text>
<text transform="matrix(1 0 0 1 1289.0022 445.32)" class="st3 st4 st11">t</text>
<text transform="matrix(1 0 0 1 1298.0037 445.32)" class="st1 st2"> </text>
<text class="st1 st2"> </text>
<path id="SVGID_x5F_13_x5F_" class="st0" d="M521.5,420.3H1887"/>
<text transform="matrix(1 0 0 1 1094.655 420.32)" class="st1 st2"> </text>
<text transform="matrix(1 0 0 1 1097.989 420.32)" class="st3 st4 st11">R</text>
<text transform="matrix(1 0 0 1 1106.9905 420.32)" class="st3 st4 st11">e</text>
<text transform="matrix(1 0 0 1 1115.9919 420.32)" class="st3 st4 st11">a</text>
<text transform="matrix(1 0 0 1 1124.9934 420.32)" class="st3 st4 st11">c</text>
<text transform="matrix(1 0 0 1 1133.9949 420.32)" class="st3 st4 st11">t</text>
<text transform="matrix(1 0 0 1 1142.9963 420.32)" class="st3 st4 st11"> </text>
<text transform="matrix(1 0 0 1 1151.9978 420.32)" class="st1 st2"> </text>
<text class="st1 st2"> </text>
<path id="SVGID_x5F_14_x5F_" class="st0" d="M172.5,95.3H1538"/>
<text transform="matrix(1 0 0 1 745.655 95.32)" class="st1 st2"> </text>
<text transform="matrix(1 0 0 1 748.989 95.32)" class="st3 st4 st11">M</text>
<text transform="matrix(1 0 0 1 757.9904 95.32)" class="st3 st4 st11">a</text>
<text transform="matrix(1 0 0 1 766.9919 95.32)" class="st3 st4 st11">t</text>
<text transform="matrix(1 0 0 1 775.9933 95.32)" class="st3 st4 st11">e</text>
<text transform="matrix(1 0 0 1 784.9948 95.32)" class="st3 st4 st11">r</text>
<text transform="matrix(1 0 0 1 793.9963 95.32)" class="st3 st4 st11">i</text>
<text transform="matrix(1 0 0 1 802.9977 95.32)" class="st3 st4 st11">a</text>
<text transform="matrix(1 0 0 1 811.9992 95.32)" class="st3 st4 st11">l</text>
<text transform="matrix(1 0 0 1 821.0007 95.32)" class="st3 st4 st11">U</text>
<text transform="matrix(1 0 0 1 830.0021 95.32)" class="st3 st4 st11">I</text>
<text transform="matrix(1 0 0 1 839.0036 95.32)" class="st3 st4 st11"> </text>
<text transform="matrix(1 0 0 1 848.0051 95.32)" class="st1 st2"> </text>
<text class="st1 st2"> </text>
<path id="SVGID_x5F_15_x5F_" class="st0" d="M692.5,333.3H2058"/>
<text transform="matrix(1 0 0 1 1265.655 333.32)" class="st1 st2"> </text>
<text transform="matrix(1 0 0 1 1268.989 333.32)" class="st3 st4 st11">B</text>
<text transform="matrix(1 0 0 1 1277.9905 333.32)" class="st3 st4 st11">o</text>
<text transform="matrix(1 0 0 1 1286.9919 333.32)" class="st3 st4 st11">o</text>
<text transform="matrix(1 0 0 1 1295.9934 333.32)" class="st3 st4 st11">t</text>
<text transform="matrix(1 0 0 1 1304.9949 333.32)" class="st3 st4 st11">s</text>
<text transform="matrix(1 0 0 1 1313.9963 333.32)" class="st3 st4 st11">t</text>
<text transform="matrix(1 0 0 1 1322.9978 333.32)" class="st3 st4 st11">r</text>
<text transform="matrix(1 0 0 1 1331.9993 333.32)" class="st3 st4 st11">a</text>
<text transform="matrix(1 0 0 1 1341.0007 333.32)" class="st3 st4 st11">p</text>
<text transform="matrix(1 0 0 1 1350.0022 333.32)" class="st1 st2"> </text>
<text class="st1 st2"> </text>
<path id="SVGID_x5F_16_x5F_" class="st0" d="M-88.5,704.5h541"/>
<text transform="matrix(1 0 0 1 98.0189 704.5)" class="st1 st2"> </text>
<text transform="matrix(1 0 0 1 101.3529 704.5)" class="st3 st4 st11">I</text>
<text transform="matrix(1 0 0 1 110.3543 704.5)" class="st3 st4 st11">l</text>
<text transform="matrix(1 0 0 1 119.3558 704.5)" class="st3 st4 st11">l</text>
<text transform="matrix(1 0 0 1 128.3573 704.5)" class="st3 st4 st11">u</text>
<text transform="matrix(1 0 0 1 137.3587 704.5)" class="st3 st4 st11">s</text>
<text transform="matrix(1 0 0 1 146.3602 704.5)" class="st3 st4 st11">t</text>
<text transform="matrix(1 0 0 1 155.3617 704.5)" class="st3 st4 st11">r</text>
<text transform="matrix(1 0 0 1 164.3631 704.5)" class="st3 st4 st11">a</text>
<text transform="matrix(1 0 0 1 173.3646 704.5)" class="st3 st4 st11">t</text>
<text transform="matrix(1 0 0 1 182.3661 704.5)" class="st3 st4 st11">o</text>
<text transform="matrix(1 0 0 1 191.3675 704.5)" class="st3 st4 st11">r</text>
<text transform="matrix(1 0 0 1 200.369 704.5)" class="st1 st2"> </text>
<text class="st1 st2"> </text>
<path id="SVGID_x5F_17_x5F_" class="st0" d="M105.5,696.5h541"/>
<text transform="matrix(1 0 0 1 292.0189 696.5)" class="st1 st2"> </text>
<text transform="matrix(1 0 0 1 295.3529 696.5)" class="st3 st4 st11">I</text>
<text transform="matrix(1 0 0 1 304.3544 696.5)" class="st3 st4 st11">n</text>
<text transform="matrix(1 0 0 1 313.3558 696.5)" class="st3 st4 st11">d</text>
<text transform="matrix(1 0 0 1 322.3573 696.5)" class="st3 st4 st11">e</text>
<text transform="matrix(1 0 0 1 331.3588 696.5)" class="st3 st4 st11">s</text>
<text transform="matrix(1 0 0 1 340.3602 696.5)" class="st3 st4 st11">i</text>
<text transform="matrix(1 0 0 1 349.3617 696.5)" class="st3 st4 st11">g</text>
<text transform="matrix(1 0 0 1 358.3632 696.5)" class="st3 st4 st11">n</text>
<text transform="matrix(1 0 0 1 367.3646 696.5)" class="st1 st2"> </text>
<text class="st1 st2"> </text>
<path id="SVGID_x5F_18_x5F_" class="st0" d="M-8.5,662.5h541"/>
<text transform="matrix(1 0 0 1 178.0189 662.5)" class="st1 st2"> </text>
<text transform="matrix(1 0 0 1 181.3529 662.5)" class="st3 st4 st11">P</text>
<text transform="matrix(1 0 0 1 190.3544 662.5)" class="st3 st4 st11">h</text>
<text transform="matrix(1 0 0 1 199.3558 662.5)" class="st3 st4 st11">o</text>
<text transform="matrix(1 0 0 1 208.3573 662.5)" class="st3 st4 st11">t</text>
<text transform="matrix(1 0 0 1 217.3588 662.5)" class="st3 st4 st11">o</text>
<text transform="matrix(1 0 0 1 226.3602 662.5)" class="st3 st4 st11">S</text>
<text transform="matrix(1 0 0 1 235.3617 662.5)" class="st3 st4 st11">h</text>
<text transform="matrix(1 0 0 1 244.3632 662.5)" class="st3 st4 st11">o</text>
<text transform="matrix(1 0 0 1 253.3646 662.5)" class="st3 st4 st11">p</text>
<text transform="matrix(1 0 0 1 262.3661 662.5)" class="st1 st2"> </text>
<text class="st1 st2"> </text>
<path id="SVGID_x5F_19_x5F_" class="st0" d="M-85.5,541.3H1280"/>
<text transform="matrix(1 0 0 1 487.655 541.32)" class="st1 st2"> </text>
<text transform="matrix(1 0 0 1 490.9889 541.32)" class="st3 st4 st12">D</text>
<text transform="matrix(1 0 0 1 500.5905 541.32)" class="st3 st4 st12">i</text>
<text transform="matrix(1 0 0 1 510.1921 541.32)" class="st3 st4 st12">s</text>
<text transform="matrix(1 0 0 1 519.7936 541.32)" class="st3 st4 st12">c</text>
<text transform="matrix(1 0 0 1 529.3952 541.32)" class="st3 st4 st12">r</text>
<text transform="matrix(1 0 0 1 538.9967 541.32)" class="st3 st4 st12">e</text>
<text transform="matrix(1 0 0 1 548.5983 541.32)" class="st3 st4 st12">t</text>
<text transform="matrix(1 0 0 1 558.2 541.32)" class="st3 st4 st12">e</text>
<text transform="matrix(1 0 0 1 567.8015 541.32)" class="st3 st4 st12"> </text>
<text transform="matrix(1 0 0 1 577.403 541.32)" class="st3 st4 st12">S</text>
<text transform="matrix(1 0 0 1 587.0045 541.32)" class="st3 st4 st12">t</text>
<text transform="matrix(1 0 0 1 596.6061 541.32)" class="st3 st4 st12">r</text>
<text transform="matrix(1 0 0 1 606.2077 541.32)" class="st3 st4 st12">u</text>
<text transform="matrix(1 0 0 1 615.8093 541.32)" class="st3 st4 st12">c</text>
<text transform="matrix(1 0 0 1 625.4108 541.32)" class="st3 st4 st12">t</text>
<text transform="matrix(1 0 0 1 635.0124 541.32)" class="st3 st4 st12">u</text>
<text transform="matrix(1 0 0 1 644.614 541.32)" class="st3 st4 st12">r</text>
<text transform="matrix(1 0 0 1 654.2155 541.32)" class="st3 st4 st12">e</text>
<text transform="matrix(1 0 0 1 663.8171 541.32)" class="st1 st2"> </text>
<text class="st1 st2"> </text>
<g>
	<path class="st14" d="M238.6,584.5h34.8v33.9h-34.8V584.5z"/>
	<path class="st15" d="M237,583v37h38v-37H237z M238.6,584.5h34.8v33.9h-34.8V584.5z M246.2,591.6c0-0.1,0.2-0.2,0.4-0.2
		c1,0,2.5-0.1,4.1-0.1c4.4,0,6.1,2.4,6.1,5.5c0,4-2.9,5.8-6.5,5.8c-0.6,0-0.8,0-1.2,0v6.1c0,0.1-0.1,0.2-0.2,0.2h-2.4
		c-0.1,0-0.2,0-0.2-0.2L246.2,591.6L246.2,591.6z M249,600c0.4,0,0.6,0,1.3,0c1.9,0,3.6-0.7,3.6-3.2c0-2-1.2-3-3.4-3
		c-0.6,0-1.2,0-1.5,0L249,600L249,600z M262.6,598.2c-1.2,0-1.7,0.6-1.7,1.2c0,0.6,0.3,1,2,1.8c2.5,1.2,3.3,2.4,3.3,4
		c0,2.5-1.9,3.9-4.5,3.9c-1.4,0-2.6-0.3-3.2-0.7c-0.1,0-0.1-0.1-0.1-0.2v-2.3c0-0.2,0.1-0.2,0.2-0.1c1,0.7,2.1,0.9,3.2,0.9
		c1.2,0,1.8-0.5,1.8-1.2c0-0.6-0.4-1.1-2-1.9c-2.2-1.1-3.2-2.2-3.2-4c0-2,1.6-3.7,4.4-3.7c1.4,0,2.3,0.2,2.8,0.4
		c0.1,0.1,0.2,0.2,0.2,0.3v2.2c0,0.1-0.1,0.2-0.2,0.2C264.7,598.4,263.6,598.2,262.6,598.2L262.6,598.2z"/>
</g>
<g>
	
		<radialGradient id="SVGID_1_" cx="321.4693" cy="575.8529" r="22.6794" gradientTransform="matrix(1 0 0 1 0 -22)" gradientUnits="userSpaceOnUse">
		<stop  offset="0" style="stop-color:#250012;stop-opacity:0.85"/>
		<stop  offset="0.767" style="stop-color:#250012"/>
	</radialGradient>
	<path class="st16" d="M307.6,542.6h34.8v33.8h-34.8V542.6z"/>
	<path class="st17" d="M306,541v37h38v-37H306z M307.6,542.6h34.8v33.8h-34.8V542.6z M319.9,566.6c0,0.2,0,0.2-0.2,0.2h-2.4
		c-0.2,0-0.2-0.1-0.2-0.2v-17c0-0.2,0.1-0.2,0.2-0.2h2.5c0.1,0,0.2,0,0.2,0.2L319.9,566.6L319.9,566.6z M322.7,560.5
		c0-3.8,2.5-6.7,6.5-6.7c0.3,0,0.5,0,0.8,0v-4.2c0-0.1,0.1-0.2,0.2-0.2h2.6c0.1,0,0.2,0,0.2,0.1v14.8c0,0.4,0,1,0.1,1.6
		c0,0.1,0,0.1-0.1,0.2c-1.4,0.7-2.8,0.9-4.1,0.9C325.2,567.1,322.7,564.9,322.7,560.5L322.7,560.5z M330,556.4
		c-0.2-0.1-0.5-0.2-0.9-0.2c-2,0-3.5,1.6-3.5,4.2c0,3,1.5,4.2,3.3,4.2c0.4,0,0.8,0,1.1-0.2V556.4L330,556.4z"/>
</g>
<g>
	<path class="st18" d="M359,602.9h34.5v33.5H359V602.9z"/>
	<path class="st19" d="M357.4,601.3V638H395v-36.7H357.4z M359,602.9h34.5v33.5H359V602.9z"/>
	<path class="st19" d="M370.4,622.1l-1.2,4.7c0,0.1-0.1,0.2-0.2,0.2h-2.3c-0.2,0-0.2,0-0.2-0.2l4.5-15.6c0.1-0.3,0.1-0.5,0.2-1.3
		c0-0.1,0-0.2,0.1-0.2h3.3c0.1,0,0.2,0,0.2,0.2l5,16.9c0,0.1,0,0.2-0.1,0.2H377c-0.1,0-0.2,0-0.2-0.1l-1.3-4.7L370.4,622.1
		L370.4,622.1z M374.8,619.5c-0.4-1.7-1.5-5.5-1.9-7.4h0c-0.3,1.8-1.2,4.9-1.8,7.4H374.8z M381.9,610.8c0-1,0.7-1.6,1.6-1.6
		c1,0,1.6,0.6,1.6,1.6c0,1-0.7,1.6-1.6,1.6C382.5,612.4,381.9,611.9,381.9,610.8L381.9,610.8z M382,614.4c0-0.1,0-0.2,0.2-0.2h2.5
		c0.1,0,0.2,0,0.2,0.2v12.4c0,0.1,0,0.2-0.2,0.2h-2.4c-0.2,0-0.2-0.1-0.2-0.2L382,614.4L382,614.4z"/>
</g>
<g>
	<circle id="circle" class="st3" cx="1130.8" cy="48.5" r="15.5"/>
	<path id="blue-piece" class="st20" d="M1143,58.1c2.1-2.6,3.3-6,3.3-9.6c0-8.6-7-15.5-15.5-15.5c-1.9,0-3.7,0.3-5.3,0.9
		C1131.8,37.2,1140.1,48,1143,58.1z"/>
	<path id="left-red-piece" class="st21" d="M1128.6,42.9c-2.4-2.6-5.1-4.7-8-6.1c-3.2,2.8-5.3,7-5.3,11.7c0,3.9,1.4,7.5,3.8,10.2
		C1121.2,52.4,1125.2,46.3,1128.6,42.9z"/>
	<path id="bottom-red-piece" class="st21" d="M1131.4,46.4c-3.4,3.6-6.7,10-7.9,15.8c2.2,1.2,4.7,1.8,7.3,1.8c2.7,0,5.3-0.7,7.5-1.9
		C1137,56.3,1134.6,50.8,1131.4,46.4z"/>
</g>
<g>
	<path class="st22" d="M1068.9,216.4l-2.9-32.1h31.4l-2.9,32l-12.9,3.6"/>
	<path class="st23" d="M1081.7,217.3V187h12.8l-2.4,27.4"/>
	<path class="st24" d="M1071.8,190.9h9.9v3.9h-5.6l0.4,4h5.2v3.9h-8.8 M1073.1,204.8h3.9l0.3,3.1l4.4,1.2v4.1l-8.1-2.2"/>
	<path class="st3" d="M1091.5,190.9h-9.8v3.9h9.5 M1090.8,198.9h-9.1v3.9h4.8l-0.5,5.1l-4.4,1.2v4.1l8.1-2.2"/>
</g>
<g>
	<polygon id="polygon2989" class="st25" points="1071,101.3 1068.1,134 1055,137.6 1041.9,134 1039,101.3 	"/>
	<polygon id="polygon2991" class="st26" points="1065.6,131.9 1068.1,104 1055,104 1055,134.8 	"/>
	<polygon id="polygon2993" class="st24" points="1045.7,116.1 1046,120.1 1055,120.1 1055,116.1 	"/>
	<polygon id="polygon2995" class="st24" points="1055,108 1055,108 1044.9,108 1045.3,112 1055,112 	"/>
	<polygon id="polygon2997" class="st24" points="1055,130.7 1055,126.5 1055,126.5 1050.5,125.3 1050.2,122.1 1048.1,122.1 
		1046.2,122.1 1046.8,128.4 1055,130.7 	"/>
	<polygon id="polygon3005" class="st3" points="1059.9,120.1 1059.4,125.3 1055,126.5 1055,130.7 1063.2,128.4 1063.3,127.7 
		1064.2,117.2 1064.3,116.1 1065,108 1055,108 1055,112 1060.6,112 1060.3,116.1 1055,116.1 1055,120.1 	"/>
</g>
<g id="layer1" transform="matrix(15.623041,0,0,15.623041,-3987.6024,-6644.8835)">
	
		<linearGradient id="rect3050_1_" gradientUnits="userSpaceOnUse" x1="297.2044" y1="446.7241" x2="298.8439" y2="445.056" gradientTransform="matrix(244.0788 0 0 244.0788 -72204.5938 -108601.3359)">
		<stop  offset="0" style="stop-color:#070135"/>
		<stop  offset="1" style="stop-color:#612D50"/>
	</linearGradient>
	<path id="rect3050" class="st27" d="M336.9,432.8h1.3c0.2,0,0.3,0.1,0.3,0.3v1.3c0,0.2-0.1,0.3-0.3,0.3h-1.3
		c-0.2,0-0.3-0.1-0.3-0.3v-1.3C336.6,432.9,336.7,432.8,336.9,432.8z"/>
	<g id="text3836" transform="scale(1.0052013,0.99482561)">
		<path id="path3841" class="st3" d="M335.8,435.8c0,0,0.1,0,0.1,0c0,0,0,0,0-0.1s0-0.1,0-0.1c0,0-0.1,0-0.1,0h-0.2v0.2L335.8,435.8
			 M335.8,436.3c0.1,0,0.1,0,0.1,0c0,0,0-0.1,0-0.1c0,0,0-0.1,0-0.1c0,0-0.1,0-0.1,0h-0.2v0.3L335.8,436.3 M336.1,435.9
			c0.1,0,0.1,0,0.1,0.1s0,0.1,0,0.2c0,0.1,0,0.2-0.1,0.2c-0.1,0.1-0.2,0.1-0.4,0.1h-0.5v-1.2h0.5c0.2,0,0.3,0,0.4,0.1
			c0.1,0,0.1,0.1,0.1,0.2c0,0.1,0,0.1,0,0.1C336.2,435.9,336.1,435.9,336.1,435.9"/>
	</g>
</g>
<g id="Page-1">
	<g id="icon_IntelliJIDEA">
		
			<linearGradient id="Shape_1_" gradientUnits="userSpaceOnUse" x1="397.5862" y1="16.4931" x2="398.1165" y2="16.4931" gradientTransform="matrix(29.8 0 0 26.5 -10885.7002 -304.5977)">
			<stop  offset="0.26" style="stop-color:#F97A12"/>
			<stop  offset="0.46" style="stop-color:#B07B58"/>
			<stop  offset="0.72" style="stop-color:#577BAE"/>
			<stop  offset="0.91" style="stop-color:#1E7CE5"/>
			<stop  offset="1" style="stop-color:#087CFA"/>
		</linearGradient>
		<polygon id="Shape" class="st28" points="970.6,139.5 962.4,133 966.5,125.4 978.2,130 		"/>
		
			<linearGradient id="SVGID_2_" gradientUnits="userSpaceOnUse" x1="392.1159" y1="14.1284" x2="392.7579" y2="14.3573" gradientTransform="matrix(40.6 0 0 63 -14945.3994 -765)">
			<stop  offset="0" style="stop-color:#F97A12"/>
			<stop  offset="7.000000e-02" style="stop-color:#CB7A3E"/>
			<stop  offset="0.15" style="stop-color:#9E7B6A"/>
			<stop  offset="0.24" style="stop-color:#757B91"/>
			<stop  offset="0.33" style="stop-color:#537BB1"/>
			<stop  offset="0.43" style="stop-color:#387CCC"/>
			<stop  offset="0.54" style="stop-color:#237CE0"/>
			<stop  offset="0.66" style="stop-color:#147CEF"/>
			<stop  offset="0.79" style="stop-color:#0B7CF7"/>
			<stop  offset="1" style="stop-color:#087CFA"/>
		</linearGradient>
		<polygon class="st29" points="996,122.1 995.4,141.7 982.3,147 974.4,141.9 985.9,130 980.9,118.9 985.4,113.5 		"/>
		
			<linearGradient id="SVGID_3_" gradientUnits="userSpaceOnUse" x1="398.3911" y1="15.6531" x2="398.1358" y2="15.0986" gradientTransform="matrix(28.4 0 0 39.1 -10321.5996 -478.2004)">
			<stop  offset="0" style="stop-color:#FE315D"/>
			<stop  offset="8.000000e-02" style="stop-color:#CB417E"/>
			<stop  offset="0.16" style="stop-color:#9E4E9B"/>
			<stop  offset="0.25" style="stop-color:#755BB4"/>
			<stop  offset="0.34" style="stop-color:#5365CA"/>
			<stop  offset="0.44" style="stop-color:#386DDB"/>
			<stop  offset="0.54" style="stop-color:#2374E9"/>
			<stop  offset="0.66" style="stop-color:#1478F3"/>
			<stop  offset="0.79" style="stop-color:#0B7BF8"/>
			<stop  offset="1" style="stop-color:#087CFA"/>
		</linearGradient>
		<polygon class="st30" points="996,122.1 985.6,134.3 980.9,118.9 985.4,113.5 		"/>
		
			<linearGradient id="SVGID_4_" gradientUnits="userSpaceOnUse" x1="390.0003" y1="14.0992" x2="390.4435" y2="14.676" gradientTransform="matrix(49.1 0 0 62.4 -18181.7988 -758.7996)">
			<stop  offset="0" style="stop-color:#FE315D"/>
			<stop  offset="4.000000e-02" style="stop-color:#F63462"/>
			<stop  offset="0.1" style="stop-color:#DF3A71"/>
			<stop  offset="0.17" style="stop-color:#C24383"/>
			<stop  offset="0.29" style="stop-color:#AD4A91"/>
			<stop  offset="0.55" style="stop-color:#755BB4"/>
			<stop  offset="0.92" style="stop-color:#1D76ED"/>
			<stop  offset="1" style="stop-color:#087CFA"/>
		</linearGradient>
		<polygon class="st31" points="978.4,141.2 964.8,146.1 966.9,138.5 969.8,129 962,126.4 966.9,113 977.6,114.3 988.1,126.3 		"/>
		<g id="Group" transform="translate(12.000000, 12.000000)">
			<rect id="Rectangle-path" x="956.4" y="107.4" class="st32" width="21.2" height="21.3"/>
			<g transform="translate(3.000000, 5.000000)">
				<rect x="955.4" y="119.6" class="st33" width="8" height="1.3"/>
				<polygon class="st33" points="961.1,106.7 961.1,105.1 956.7,105.1 956.7,106.7 957.9,106.7 957.9,112.3 956.7,112.3 956.7,114 
					961.1,114 961.1,112.3 959.9,112.3 959.9,106.7 				"/>
				<path class="st33" d="M965.3,114.1c-0.6,0-1.2-0.1-1.8-0.4c-0.4-0.2-0.8-0.6-1.2-1l1.2-1.4c0.2,0.2,0.5,0.5,0.7,0.6
					c0.3,0.2,0.5,0.2,0.8,0.2c0.3,0,0.7-0.1,0.8-0.4c0.2-0.3,0.4-0.7,0.3-1.1V105h2v5.7c0,0.5,0,0.9-0.2,1.4
					c-0.1,0.4-0.4,0.8-0.7,1.2C966.8,113.8,966.1,114,965.3,114.1"/>
			</g>
		</g>
	</g>
</g>
<g>
	<path class="st34" d="M1179.3,140.6c0-2.3-2.8-4.4-7.2-5.8c1-4.4,0.6-8-1.4-9.1c-0.4-0.3-1-0.4-1.6-0.4v1.6c0.3,0,0.6,0.1,0.8,0.2
		c0.9,0.6,1.4,2.6,1,5.3c-0.1,0.7-0.2,1.4-0.4,2.1c-1.4-0.3-2.9-0.6-4.4-0.8c-0.9-1.3-1.9-2.5-2.9-3.5c2.3-2.1,4.4-3.3,5.9-3.3v-1.6
		l0,0c-1.9,0-4.4,1.4-7,3.8c-2.5-2.4-5.1-3.7-7-3.7v1.6c1.4,0,3.6,1.1,5.9,3.3c-1,1-2,2.2-2.9,3.5c-1.6,0.2-3.1,0.4-4.4,0.8
		c-0.2-0.7-0.3-1.4-0.4-2c-0.3-2.7,0.1-4.8,1-5.3c0.2-0.1,0.5-0.2,0.8-0.2v-1.6l0,0c-0.6,0-1.1,0.1-1.6,0.4c-2,1.1-2.4,4.7-1.4,9.1
		c-4.3,1.3-7.2,3.5-7.2,5.8c0,2.3,2.8,4.4,7.2,5.8c-1,4.4-0.6,8,1.4,9.1c0.4,0.3,1,0.4,1.6,0.4c1.9,0,4.4-1.4,7-3.8
		c2.5,2.4,5.1,3.7,7,3.7c0.6,0,1.1-0.1,1.6-0.4c2-1.1,2.4-4.7,1.4-9.1C1176.5,145.1,1179.3,142.9,1179.3,140.6z M1170.2,136
		c-0.3,0.9-0.6,1.8-0.9,2.8c-0.3-0.6-0.6-1.1-0.9-1.7c-0.3-0.6-0.7-1.1-1-1.6C1168.3,135.6,1169.3,135.7,1170.2,136z M1167,143.4
		c-0.6,0.9-1.1,1.8-1.7,2.7c-1,0.1-2.1,0.1-3.2,0.1s-2.1-0.1-3.2-0.1c-0.6-0.8-1.2-1.7-1.7-2.7c-0.5-0.9-1-1.9-1.4-2.8
		c0.4-0.9,0.9-1.9,1.4-2.8c0.6-0.9,1.1-1.8,1.7-2.7c1-0.1,2.1-0.1,3.2-0.1s2.1,0.1,3.2,0.1c0.6,0.8,1.2,1.7,1.7,2.7
		c0.5,0.9,1,1.9,1.4,2.8C1168,141.6,1167.5,142.5,1167,143.4z M1169.2,142.5c0.4,0.9,0.7,1.9,1,2.8c-0.9,0.2-1.9,0.4-2.9,0.6
		c0.3-0.5,0.7-1.1,1-1.7C1168.7,143.6,1169,143.1,1169.2,142.5z M1162.2,150c-0.7-0.7-1.3-1.4-1.9-2.2c0.6,0,1.3,0.1,1.9,0.1
		c0.7,0,1.3,0,1.9-0.1C1163.5,148.5,1162.8,149.3,1162.2,150z M1157,145.9c-1-0.1-1.9-0.3-2.9-0.6c0.3-0.9,0.6-1.8,0.9-2.8
		c0.3,0.6,0.6,1.1,0.9,1.7S1156.6,145.3,1157,145.9z M1162.1,131.3c0.7,0.7,1.3,1.4,1.9,2.2c-0.6,0-1.3-0.1-1.9-0.1
		c-0.7,0-1.3,0-1.9,0.1C1160.8,132.7,1161.5,132,1162.1,131.3z M1157,135.4c-0.3,0.5-0.7,1.1-1,1.7c-0.3,0.6-0.6,1.1-0.9,1.7
		c-0.4-0.9-0.7-1.9-1-2.8C1155,135.8,1156,135.6,1157,135.4z M1150.6,144.2c-2.5-1.1-4.1-2.4-4.1-3.5s1.6-2.5,4.1-3.5
		c0.6-0.3,1.3-0.5,1.9-0.7c0.4,1.4,0.9,2.8,1.6,4.3c-0.6,1.4-1.2,2.9-1.6,4.2C1151.9,144.7,1151.2,144.4,1150.6,144.2z
		 M1154.4,154.2c-0.9-0.6-1.4-2.6-1-5.3c0.1-0.7,0.2-1.4,0.4-2.1c1.4,0.3,2.9,0.6,4.4,0.8c0.9,1.3,1.9,2.5,2.9,3.5
		c-2.3,2.1-4.4,3.3-5.9,3.3C1154.9,154.3,1154.6,154.3,1154.4,154.2z M1171,148.8c0.3,2.7-0.1,4.8-1,5.3c-0.2,0.1-0.5,0.2-0.8,0.2
		c-1.4,0-3.6-1.1-5.9-3.3c1-1,2-2.2,2.9-3.5c1.6-0.2,3.1-0.4,4.4-0.8C1170.8,147.5,1170.9,148.2,1171,148.8z M1173.7,144.2
		c-0.6,0.3-1.3,0.5-1.9,0.7c-0.4-1.4-0.9-2.8-1.6-4.3c0.6-1.4,1.2-2.9,1.6-4.2c0.7,0.2,1.3,0.4,2,0.7c2.5,1.1,4.1,2.4,4.1,3.5
		C1177.7,141.7,1176.1,143.1,1173.7,144.2z"/>
	<path class="st34" d="M1155.1,125.4L1155.1,125.4L1155.1,125.4z"/>
	<circle class="st34" cx="1162.1" cy="140.6" r="3.2"/>
	<path class="st34" d="M1169.1,125.4L1169.1,125.4L1169.1,125.4z"/>
</g>
<g id="g5193" transform="translate(4.988 -113.385)">
	<path id="path5113" class="st35" d="M1178,366l-3-32.6l31.9,0L1204,366l-13,3.7L1178,366z M1201.6,364.2l2.5-27.9H1191l0.1,30.8
		L1201.6,364.2z M1189.8,340.4h-3.2l0,16.7l-6.2-1.7l0,3.8l9.3,2.5L1189.8,340.4L1189.8,340.4z"/>
	<path id="path5159" class="st36" d="M1188.7,361.5c-0.4-0.1-2.4-0.7-4.5-1.2l-3.7-1v-1.9c0-1.8,0-1.9,0.2-1.8c0.1,0,1.5,0.4,3,0.9
		l2.8,0.8l0-8.3l0-8.3h3.1v10.6c0,8.4,0,10.6-0.1,10.6C1189.5,361.7,1189.1,361.6,1188.7,361.5L1188.7,361.5z"/>
	<path id="path5157" class="st37" d="M1180.4,359.2l0-3.8c0,0,3.9,1.1,6.2,1.7l0-16.7h3.2v21.4L1180.4,359.2L1180.4,359.2z"/>
	<path id="path5117" class="st38" d="M1191,336.3h13.1l-2.5,27.9l-10.6,2.9L1191,336.3L1191,336.3z M1200.9,359.5l0.9-10.4l-6.3,0.7
		v-5.6l6.8,0l0.3-3.8l-10.2,0l0.1,13.9l6.2-1.1l-0.1,3.1l-6.2,1.6l0.1,3.8L1200.9,359.5L1200.9,359.5z"/>
</g>
<path class="st39" d="M183-36"/>
<g class="st40">
	<line class="st41" x1="1195.5" y1="289.5" x2="465.5" y2="704.5"/>
	<line class="st41" x1="1140.5" y1="279.2" x2="505.3" y2="697.2"/>
	<line class="st41" x1="1085.5" y1="268.8" x2="545.1" y2="689.9"/>
	<line class="st41" x1="1030.5" y1="258.5" x2="584.9" y2="682.6"/>
	<line class="st41" x1="975.5" y1="248.2" x2="624.7" y2="675.4"/>
	<line class="st41" x1="920.5" y1="237.8" x2="664.5" y2="668.1"/>
	<line class="st41" x1="865.5" y1="227.5" x2="704.4" y2="660.8"/>
	<line class="st41" x1="810.5" y1="217.2" x2="744.2" y2="653.5"/>
	<line class="st41" x1="755.5" y1="206.8" x2="784" y2="646.2"/>
	<line class="st41" x1="700.5" y1="196.5" x2="823.8" y2="638.9"/>
	<line class="st41" x1="645.5" y1="186.2" x2="863.6" y2="631.6"/>
	<line class="st41" x1="590.5" y1="175.8" x2="903.4" y2="624.4"/>
	<line class="st41" x1="535.5" y1="165.5" x2="943.2" y2="617.1"/>
	<line class="st41" x1="480.5" y1="155.2" x2="983" y2="609.8"/>
	<line class="st41" x1="425.5" y1="144.8" x2="1022.8" y2="602.5"/>
	<line class="st41" x1="370.5" y1="134.5" x2="1062.6" y2="595.2"/>
	<line class="st41" x1="315.5" y1="124.2" x2="1102.4" y2="587.9"/>
	<line class="st41" x1="260.5" y1="113.8" x2="1142.3" y2="580.6"/>
	<line class="st41" x1="205.5" y1="103.5" x2="1182.1" y2="573.4"/>
	<line class="st41" x1="150.5" y1="93.2" x2="1221.9" y2="566.1"/>
	<line class="st41" x1="95.5" y1="82.8" x2="1261.7" y2="558.8"/>
	<line class="st41" x1="40.5" y1="72.5" x2="1301.5" y2="551.5"/>
</g>
<g id="Layer_2_1_">
</g>
</svg>
